<svg class="main-svg" xmlns="http://www.w3.org/2000/svg" xmlns:xlink="http://www.w3.org/1999/xlink" width="1240" height="620" style="" viewBox="0 0 1240 620"><rect x="0" y="0" width="1240" height="620" style="fill: rgb(0, 0, 0); fill-opacity: 1;"/><defs id="defs-86e1fe"><g class="clips"><clipPath id="clip86e1fexyplot" class="plotclip"><rect width="504" height="169.42"/></clipPath><clipPath id="clip86e1fex2y2plot" class="plotclip"><rect width="503.99999999999994" height="169.42"/></clipPath><clipPath id="clip86e1fex3y3plot" class="plotclip"><rect width="504" height="169.42"/></clipPath><clipPath id="clip86e1fex4y4plot" class="plotclip"><rect width="503.99999999999994" height="169.42"/></clipPath><clipPath class="axesclip" id="clip86e1fex"><rect x="80" y="0" width="504" height="620"/></clipPath><clipPath class="axesclip" id="clip86e1fey"><rect x="0" y="130" width="1240" height="169.42"/></clipPath><clipPath class="axesclip" id="clip86e1fexy"><rect x="80" y="130" width="504" height="169.42"/></clipPath><clipPath class="axesclip" id="clip86e1fey2"><rect x="0" y="130" width="1240" height="169.42"/></clipPath><clipPath class="axesclip" id="clip86e1fexy2"><rect x="80" y="130" width="504" height="169.42"/></clipPath><clipPath class="axesclip" id="clip86e1fey3"><rect x="0" y="354.58000000000004" width="1240" height="169.42"/></clipPath><clipPath class="axesclip" id="clip86e1fexy3"><rect x="80" y="354.58000000000004" width="504" height="169.42"/></clipPath><clipPath class="axesclip" id="clip86e1fey4"><rect x="0" y="354.58000000000004" width="1240" height="169.42"/></clipPath><clipPath class="axesclip" id="clip86e1fexy4"><rect x="80" y="354.58000000000004" width="504" height="169.42"/></clipPath><clipPath class="axesclip" id="clip86e1fex2"><rect x="696" y="0" width="503.99999999999994" height="620"/></clipPath><clipPath class="axesclip" id="clip86e1fex2y"><rect x="696" y="130" width="503.99999999999994" height="169.42"/></clipPath><clipPath class="axesclip" id="clip86e1fex2y2"><rect x="696" y="130" width="503.99999999999994" height="169.42"/></clipPath><clipPath class="axesclip" id="clip86e1fex2y3"><rect x="696" y="354.58000000000004" width="503.99999999999994" height="169.42"/></clipPath><clipPath class="axesclip" id="clip86e1fex2y4"><rect x="696" y="354.58000000000004" width="503.99999999999994" height="169.42"/></clipPath><clipPath class="axesclip" id="clip86e1fex3"><rect x="80" y="0" width="504" height="620"/></clipPath><clipPath class="axesclip" id="clip86e1fex3y"><rect x="80" y="130" width="504" height="169.42"/></clipPath><clipPath class="axesclip" id="clip86e1fex3y2"><rect x="80" y="130" width="504" height="169.42"/></clipPath><clipPath class="axesclip" id="clip86e1fex3y3"><rect x="80" y="354.58000000000004" width="504" height="169.42"/></clipPath><clipPath class="axesclip" id="clip86e1fex3y4"><rect x="80" y="354.58000000000004" width="504" height="169.42"/></clipPath><clipPath class="axesclip" id="clip86e1fex4"><rect x="696" y="0" width="503.99999999999994" height="620"/></clipPath><clipPath class="axesclip" id="clip86e1fex4y"><rect x="696" y="130" width="503.99999999999994" height="169.42"/></clipPath><clipPath class="axesclip" id="clip86e1fex4y2"><rect x="696" y="130" width="503.99999999999994" height="169.42"/></clipPath><clipPath class="axesclip" id="clip86e1fex4y3"><rect x="696" y="354.58000000000004" width="503.99999999999994" height="169.42"/></clipPath><clipPath class="axesclip" id="clip86e1fex4y4"><rect x="696" y="354.58000000000004" width="503.99999999999994" height="169.42"/></clipPath></g><g class="gradients"/><g class="patterns"/></defs><g class="bglayer"/><g class="layer-below"><g class="imagelayer"/><g class="shapelayer"/></g><g class="cartesianlayer"><g class="subplot xy"><g class="layer-subplot"><g class="shapelayer"/><g class="imagelayer"/></g><g class="minor-gridlayer"><g class="x"/><g class="y"/></g><g class="gridlayer"><g class="x"><path class="xgrid crisp" transform="translate(110.2,0)" d="M0,130v169.42" style="stroke: rgb(58, 58, 58); stroke-opacity: 1; stroke-width: 0.5px;"/><path class="xgrid crisp" transform="translate(258.07,0)" d="M0,130v169.42" style="stroke: rgb(58, 58, 58); stroke-opacity: 1; stroke-width: 0.5px;"/><path class="xgrid crisp" transform="translate(405.93,0)" d="M0,130v169.42" style="stroke: rgb(58, 58, 58); stroke-opacity: 1; stroke-width: 0.5px;"/><path class="xgrid crisp" transform="translate(553.8,0)" d="M0,130v169.42" style="stroke: rgb(58, 58, 58); stroke-opacity: 1; stroke-width: 0.5px;"/></g><g class="y"><path class="ygrid crisp" transform="translate(0,257.07)" d="M80,0h504" style="stroke: rgb(58, 58, 58); stroke-opacity: 1; stroke-width: 0.5px;"/><path class="ygrid crisp" transform="translate(0,214.70999999999998)" d="M80,0h504" style="stroke: rgb(58, 58, 58); stroke-opacity: 1; stroke-width: 0.5px;"/><path class="ygrid crisp" transform="translate(0,172.35)" d="M80,0h504" style="stroke: rgb(58, 58, 58); stroke-opacity: 1; stroke-width: 0.5px;"/></g></g><g class="zerolinelayer"/><g class="layer-between"><g class="shapelayer"/><g class="imagelayer"/></g><path class="xlines-below"/><path class="ylines-below"/><g class="overlines-below"/><g class="xaxislayer-below"/><g class="yaxislayer-below"/><g class="overaxes-below"/><g class="overplot"><g class="xy" transform="translate(80,130)" clip-path="url(#clip86e1fexyplot)"><g class="scatterlayer mlayer"><g class="trace scatter trace8308cd" style="stroke-miterlimit: 2; opacity: 1;"><g class="fills"/><g class="errorbars"/><g class="lines"><path class="js-line" d="M30.2,128.96L178.07,102.75L325.93,68.9L473.8,11.2" style="vector-effect: none; fill: none; stroke: rgb(255, 255, 255); stroke-opacity: 1; stroke-width: 1.6px; opacity: 1;"/></g><g class="points"><path class="point" transform="translate(30.2,128.96)" d="M4,0A4,4 0 1,1 0,-4A4,4 0 0,1 4,0Z" style="opacity: 1; stroke-width: 1px; fill: rgb(255, 255, 255); fill-opacity: 1; stroke: rgb(0, 0, 0); stroke-opacity: 1;"/><path class="point" transform="translate(178.07,102.75)" d="M4,0A4,4 0 1,1 0,-4A4,4 0 0,1 4,0Z" style="opacity: 1; stroke-width: 1px; fill: rgb(255, 255, 255); fill-opacity: 1; stroke: rgb(0, 0, 0); stroke-opacity: 1;"/><path class="point" transform="translate(325.93,68.9)" d="M4,0A4,4 0 1,1 0,-4A4,4 0 0,1 4,0Z" style="opacity: 1; stroke-width: 1px; fill: rgb(255, 255, 255); fill-opacity: 1; stroke: rgb(0, 0, 0); stroke-opacity: 1;"/><path class="point" transform="translate(473.8,11.2)" d="M4,0A4,4 0 1,1 0,-4A4,4 0 0,1 4,0Z" style="opacity: 1; stroke-width: 1px; fill: rgb(255, 255, 255); fill-opacity: 1; stroke: rgb(0, 0, 0); stroke-opacity: 1;"/></g><g class="text"/></g><g class="trace scatter tracef6e32e" style="stroke-miterlimit: 2; opacity: 1;"><g class="fills"/><g class="errorbars"/><g class="lines"><path class="js-line" d="M30.2,133.09L178.07,107.15L325.93,70.89L473.8,17.64" style="vector-effect: none; fill: none; stroke: rgb(118, 185, 0); stroke-opacity: 1; stroke-width: 1.4px; opacity: 1;"/></g><g class="points"><path class="point" transform="translate(30.2,133.09)" d="M5.2,0L0,5.2L-5.2,0L0,-5.2Z" style="opacity: 1; stroke-width: 1px; fill: rgb(118, 185, 0); fill-opacity: 1; stroke: rgb(0, 0, 0); stroke-opacity: 1;"/><path class="point" transform="translate(178.07,107.15)" d="M5.2,0L0,5.2L-5.2,0L0,-5.2Z" style="opacity: 1; stroke-width: 1px; fill: rgb(118, 185, 0); fill-opacity: 1; stroke: rgb(0, 0, 0); stroke-opacity: 1;"/><path class="point" transform="translate(325.93,70.89)" d="M5.2,0L0,5.2L-5.2,0L0,-5.2Z" style="opacity: 1; stroke-width: 1px; fill: rgb(118, 185, 0); fill-opacity: 1; stroke: rgb(0, 0, 0); stroke-opacity: 1;"/><path class="point" transform="translate(473.8,17.64)" d="M5.2,0L0,5.2L-5.2,0L0,-5.2Z" style="opacity: 1; stroke-width: 1px; fill: rgb(118, 185, 0); fill-opacity: 1; stroke: rgb(0, 0, 0); stroke-opacity: 1;"/></g><g class="text"/></g><g class="trace scatter trace7c0464" style="stroke-miterlimit: 2; opacity: 1;"><g class="fills"/><g class="errorbars"/><g class="lines"><path class="js-line" d="M30.2,132.97L178.07,106.85L325.93,69.95L473.8,14.08" style="vector-effect: none; fill: none; stroke: rgb(0, 113, 197); stroke-opacity: 1; stroke-width: 1.4px; opacity: 1;"/></g><g class="points"><path class="point" transform="translate(30.2,132.97)" d="M4,4H-4V-4H4Z" style="opacity: 1; stroke-width: 1px; fill: rgb(0, 113, 197); fill-opacity: 1; stroke: rgb(0, 0, 0); stroke-opacity: 1;"/><path class="point" transform="translate(178.07,106.85)" d="M4,4H-4V-4H4Z" style="opacity: 1; stroke-width: 1px; fill: rgb(0, 113, 197); fill-opacity: 1; stroke: rgb(0, 0, 0); stroke-opacity: 1;"/><path class="point" transform="translate(325.93,69.95)" d="M4,4H-4V-4H4Z" style="opacity: 1; stroke-width: 1px; fill: rgb(0, 113, 197); fill-opacity: 1; stroke: rgb(0, 0, 0); stroke-opacity: 1;"/><path class="point" transform="translate(473.8,14.08)" d="M4,4H-4V-4H4Z" style="opacity: 1; stroke-width: 1px; fill: rgb(0, 113, 197); fill-opacity: 1; stroke: rgb(0, 0, 0); stroke-opacity: 1;"/></g><g class="text"/></g></g></g></g><g class="zerolinelayer-above"/><path class="xlines-above crisp" d="M79.5,299.66999999999996H584.5M79.5,129.75H584.5" style="fill: none; stroke-width: 0.5px; stroke: rgb(58, 58, 58); stroke-opacity: 1;"/><path class="ylines-above crisp" d="M79.75,130V299.41999999999996M584.25,130V299.41999999999996" style="fill: none; stroke-width: 0.5px; stroke: rgb(58, 58, 58); stroke-opacity: 1;"/><g class="overlines-above"/><g class="xaxislayer-above"><g class="xtick"><text text-anchor="middle" x="0" y="311.91999999999996" transform="translate(110.2,0)" style="font-family: 'Geist Mono', 'JetBrains Mono', 'Roboto Mono', 'SF Mono', Menlo, Consolas, monospace; font-size: 10px; fill: rgb(205, 205, 205); fill-opacity: 1; white-space: pre;">8</text></g><g class="xtick"><text text-anchor="middle" x="0" y="311.91999999999996" style="font-family: 'Geist Mono', 'JetBrains Mono', 'Roboto Mono', 'SF Mono', Menlo, Consolas, monospace; font-size: 10px; fill: rgb(205, 205, 205); fill-opacity: 1; white-space: pre;" transform="translate(258.07,0)">16</text></g><g class="xtick"><text text-anchor="middle" x="0" y="311.91999999999996" style="font-family: 'Geist Mono', 'JetBrains Mono', 'Roboto Mono', 'SF Mono', Menlo, Consolas, monospace; font-size: 10px; fill: rgb(205, 205, 205); fill-opacity: 1; white-space: pre;" transform="translate(405.93,0)">32</text></g><g class="xtick"><text text-anchor="middle" x="0" y="311.91999999999996" style="font-family: 'Geist Mono', 'JetBrains Mono', 'Roboto Mono', 'SF Mono', Menlo, Consolas, monospace; font-size: 10px; fill: rgb(205, 205, 205); fill-opacity: 1; white-space: pre;" transform="translate(553.8,0)">64</text></g></g><g class="yaxislayer-above"><g class="ytick"><text text-anchor="end" x="77.1" y="4.199999999999999" transform="translate(0,299.41999999999996)" style="font-family: 'Geist Mono', 'JetBrains Mono', 'Roboto Mono', 'SF Mono', Menlo, Consolas, monospace; font-size: 12px; fill: rgb(255, 255, 255); fill-opacity: 1; white-space: pre;">0</text></g><g class="ytick"><text text-anchor="end" x="77.1" y="4.199999999999999" style="font-family: 'Geist Mono', 'JetBrains Mono', 'Roboto Mono', 'SF Mono', Menlo, Consolas, monospace; font-size: 12px; fill: rgb(255, 255, 255); fill-opacity: 1; white-space: pre;" transform="translate(0,257.07)">200</text></g><g class="ytick"><text text-anchor="end" x="77.1" y="4.199999999999999" style="font-family: 'Geist Mono', 'JetBrains Mono', 'Roboto Mono', 'SF Mono', Menlo, Consolas, monospace; font-size: 12px; fill: rgb(255, 255, 255); fill-opacity: 1; white-space: pre;" transform="translate(0,214.70999999999998)">400</text></g><g class="ytick"><text text-anchor="end" x="77.1" y="4.199999999999999" style="font-family: 'Geist Mono', 'JetBrains Mono', 'Roboto Mono', 'SF Mono', Menlo, Consolas, monospace; font-size: 12px; fill: rgb(255, 255, 255); fill-opacity: 1; white-space: pre;" transform="translate(0,172.35)">600</text></g><g class="ytick"><text text-anchor="end" x="77.1" y="4.199999999999999" style="font-family: 'Geist Mono', 'JetBrains Mono', 'Roboto Mono', 'SF Mono', Menlo, Consolas, monospace; font-size: 12px; fill: rgb(255, 255, 255); fill-opacity: 1; white-space: pre;" transform="translate(0,130)">800</text></g></g><g class="overaxes-above"/></g><g class="subplot x2y2"><g class="layer-subplot"><g class="shapelayer"/><g class="imagelayer"/></g><g class="minor-gridlayer"><g class="x2"/><g class="y2"/></g><g class="gridlayer"><g class="x2"><path class="x2grid crisp" transform="translate(726.2,0)" d="M0,130v169.42" style="stroke: rgb(58, 58, 58); stroke-opacity: 1; stroke-width: 0.5px;"/><path class="x2grid crisp" transform="translate(874.0699999999999,0)" d="M0,130v169.42" style="stroke: rgb(58, 58, 58); stroke-opacity: 1; stroke-width: 0.5px;"/><path class="x2grid crisp" transform="translate(1021.9300000000001,0)" d="M0,130v169.42" style="stroke: rgb(58, 58, 58); stroke-opacity: 1; stroke-width: 0.5px;"/><path class="x2grid crisp" transform="translate(1169.8,0)" d="M0,130v169.42" style="stroke: rgb(58, 58, 58); stroke-opacity: 1; stroke-width: 0.5px;"/></g><g class="y2"><path class="y2grid crisp" transform="translate(0,257.07)" d="M696,0h503.99999999999994" style="stroke: rgb(58, 58, 58); stroke-opacity: 1; stroke-width: 0.5px;"/><path class="y2grid crisp" transform="translate(0,214.70999999999998)" d="M696,0h503.99999999999994" style="stroke: rgb(58, 58, 58); stroke-opacity: 1; stroke-width: 0.5px;"/><path class="y2grid crisp" transform="translate(0,172.35)" d="M696,0h503.99999999999994" style="stroke: rgb(58, 58, 58); stroke-opacity: 1; stroke-width: 0.5px;"/></g></g><g class="zerolinelayer"/><g class="layer-between"><g class="shapelayer"/><g class="imagelayer"/></g><path class="xlines-below"/><path class="ylines-below"/><g class="overlines-below"/><g class="xaxislayer-below"/><g class="yaxislayer-below"/><g class="overaxes-below"/><g class="overplot"><g class="x2y2" transform="translate(696,130)" clip-path="url(#clip86e1fex2y2plot)"><g class="scatterlayer mlayer"><g class="trace scatter tracef78ea4" style="stroke-miterlimit: 2; opacity: 1;"><g class="fills"/><g class="errorbars"/><g class="lines"><path class="js-line" d="M30.2,2L178.07,31.8L325.93,65.58L473.8,87.33" style="vector-effect: none; fill: none; stroke: rgb(255, 255, 255); stroke-opacity: 1; stroke-width: 1.6px; opacity: 1;"/></g><g class="points"><path class="point" transform="translate(30.2,2)" d="M4,0A4,4 0 1,1 0,-4A4,4 0 0,1 4,0Z" style="opacity: 1; stroke-width: 1px; fill: rgb(255, 255, 255); fill-opacity: 1; stroke: rgb(0, 0, 0); stroke-opacity: 1;"/><path class="point" transform="translate(178.07,31.8)" d="M4,0A4,4 0 1,1 0,-4A4,4 0 0,1 4,0Z" style="opacity: 1; stroke-width: 1px; fill: rgb(255, 255, 255); fill-opacity: 1; stroke: rgb(0, 0, 0); stroke-opacity: 1;"/><path class="point" transform="translate(325.93,65.58)" d="M4,0A4,4 0 1,1 0,-4A4,4 0 0,1 4,0Z" style="opacity: 1; stroke-width: 1px; fill: rgb(255, 255, 255); fill-opacity: 1; stroke: rgb(0, 0, 0); stroke-opacity: 1;"/><path class="point" transform="translate(473.8,87.33)" d="M4,0A4,4 0 1,1 0,-4A4,4 0 0,1 4,0Z" style="opacity: 1; stroke-width: 1px; fill: rgb(255, 255, 255); fill-opacity: 1; stroke: rgb(0, 0, 0); stroke-opacity: 1;"/></g><g class="text"/></g><g class="trace scatter trace89b795" style="stroke-miterlimit: 2; opacity: 1;"><g class="fills"/><g class="errorbars"/><g class="lines"><path class="js-line" d="M30.2,21.11L178.07,40.88L325.93,66.32L473.8,88.44" style="vector-effect: none; fill: none; stroke: rgb(118, 185, 0); stroke-opacity: 1; stroke-width: 1.4px; opacity: 1;"/></g><g class="points"><path class="point" transform="translate(30.2,21.11)" d="M5.2,0L0,5.2L-5.2,0L0,-5.2Z" style="opacity: 1; stroke-width: 1px; fill: rgb(118, 185, 0); fill-opacity: 1; stroke: rgb(0, 0, 0); stroke-opacity: 1;"/><path class="point" transform="translate(178.07,40.88)" d="M5.2,0L0,5.2L-5.2,0L0,-5.2Z" style="opacity: 1; stroke-width: 1px; fill: rgb(118, 185, 0); fill-opacity: 1; stroke: rgb(0, 0, 0); stroke-opacity: 1;"/><path class="point" transform="translate(325.93,66.32)" d="M5.2,0L0,5.2L-5.2,0L0,-5.2Z" style="opacity: 1; stroke-width: 1px; fill: rgb(118, 185, 0); fill-opacity: 1; stroke: rgb(0, 0, 0); stroke-opacity: 1;"/><path class="point" transform="translate(473.8,88.44)" d="M5.2,0L0,5.2L-5.2,0L0,-5.2Z" style="opacity: 1; stroke-width: 1px; fill: rgb(118, 185, 0); fill-opacity: 1; stroke: rgb(0, 0, 0); stroke-opacity: 1;"/></g><g class="text"/></g><g class="trace scatter trace8cd4be" style="stroke-miterlimit: 2; opacity: 1;"><g class="fills"/><g class="errorbars"/><g class="lines"><path class="js-line" d="M30.2,22.38L178.07,43.41L325.93,69.43L473.8,91.47" style="vector-effect: none; fill: none; stroke: rgb(0, 113, 197); stroke-opacity: 1; stroke-width: 1.4px; opacity: 1;"/></g><g class="points"><path class="point" transform="translate(30.2,22.38)" d="M4,4H-4V-4H4Z" style="opacity: 1; stroke-width: 1px; fill: rgb(0, 113, 197); fill-opacity: 1; stroke: rgb(0, 0, 0); stroke-opacity: 1;"/><path class="point" transform="translate(178.07,43.41)" d="M4,4H-4V-4H4Z" style="opacity: 1; stroke-width: 1px; fill: rgb(0, 113, 197); fill-opacity: 1; stroke: rgb(0, 0, 0); stroke-opacity: 1;"/><path class="point" transform="translate(325.93,69.43)" d="M4,4H-4V-4H4Z" style="opacity: 1; stroke-width: 1px; fill: rgb(0, 113, 197); fill-opacity: 1; stroke: rgb(0, 0, 0); stroke-opacity: 1;"/><path class="point" transform="translate(473.8,91.47)" d="M4,4H-4V-4H4Z" style="opacity: 1; stroke-width: 1px; fill: rgb(0, 113, 197); fill-opacity: 1; stroke: rgb(0, 0, 0); stroke-opacity: 1;"/></g><g class="text"/></g></g></g></g><g class="zerolinelayer-above"/><path class="xlines-above crisp" d="M695.5,299.66999999999996H1200.5M695.5,129.75H1200.5" style="fill: none; stroke-width: 0.5px; stroke: rgb(58, 58, 58); stroke-opacity: 1;"/><path class="ylines-above crisp" d="M695.75,130V299.41999999999996M1200.25,130V299.41999999999996" style="fill: none; stroke-width: 0.5px; stroke: rgb(58, 58, 58); stroke-opacity: 1;"/><g class="overlines-above"/><g class="xaxislayer-above"><g class="x2tick"><text text-anchor="middle" x="0" y="311.91999999999996" transform="translate(726.2,0)" style="font-family: 'Geist Mono', 'JetBrains Mono', 'Roboto Mono', 'SF Mono', Menlo, Consolas, monospace; font-size: 10px; fill: rgb(205, 205, 205); fill-opacity: 1; white-space: pre;">8</text></g><g class="x2tick"><text text-anchor="middle" x="0" y="311.91999999999996" style="font-family: 'Geist Mono', 'JetBrains Mono', 'Roboto Mono', 'SF Mono', Menlo, Consolas, monospace; font-size: 10px; fill: rgb(205, 205, 205); fill-opacity: 1; white-space: pre;" transform="translate(874.0699999999999,0)">16</text></g><g class="x2tick"><text text-anchor="middle" x="0" y="311.91999999999996" style="font-family: 'Geist Mono', 'JetBrains Mono', 'Roboto Mono', 'SF Mono', Menlo, Consolas, monospace; font-size: 10px; fill: rgb(205, 205, 205); fill-opacity: 1; white-space: pre;" transform="translate(1021.9300000000001,0)">32</text></g><g class="x2tick"><text text-anchor="middle" x="0" y="311.91999999999996" style="font-family: 'Geist Mono', 'JetBrains Mono', 'Roboto Mono', 'SF Mono', Menlo, Consolas, monospace; font-size: 10px; fill: rgb(205, 205, 205); fill-opacity: 1; white-space: pre;" transform="translate(1169.8,0)">64</text></g></g><g class="yaxislayer-above"><g class="y2tick"><text text-anchor="end" x="693.1" y="4.199999999999999" transform="translate(0,299.41999999999996)" style="font-family: 'Geist Mono', 'JetBrains Mono', 'Roboto Mono', 'SF Mono', Menlo, Consolas, monospace; font-size: 12px; fill: rgb(255, 255, 255); fill-opacity: 1; white-space: pre;">0</text></g><g class="y2tick"><text text-anchor="end" x="693.1" y="4.199999999999999" style="font-family: 'Geist Mono', 'JetBrains Mono', 'Roboto Mono', 'SF Mono', Menlo, Consolas, monospace; font-size: 12px; fill: rgb(255, 255, 255); fill-opacity: 1; white-space: pre;" transform="translate(0,257.07)">25</text></g><g class="y2tick"><text text-anchor="end" x="693.1" y="4.199999999999999" style="font-family: 'Geist Mono', 'JetBrains Mono', 'Roboto Mono', 'SF Mono', Menlo, Consolas, monospace; font-size: 12px; fill: rgb(255, 255, 255); fill-opacity: 1; white-space: pre;" transform="translate(0,214.70999999999998)">50</text></g><g class="y2tick"><text text-anchor="end" x="693.1" y="4.199999999999999" style="font-family: 'Geist Mono', 'JetBrains Mono', 'Roboto Mono', 'SF Mono', Menlo, Consolas, monospace; font-size: 12px; fill: rgb(255, 255, 255); fill-opacity: 1; white-space: pre;" transform="translate(0,172.35)">75</text></g><g class="y2tick"><text text-anchor="end" x="693.1" y="4.199999999999999" style="font-family: 'Geist Mono', 'JetBrains Mono', 'Roboto Mono', 'SF Mono', Menlo, Consolas, monospace; font-size: 12px; fill: rgb(255, 255, 255); fill-opacity: 1; white-space: pre;" transform="translate(0,130)">100</text></g></g><g class="overaxes-above"/></g><g class="subplot x3y3"><g class="layer-subplot"><g class="shapelayer"/><g class="imagelayer"/></g><g class="minor-gridlayer"><g class="x3"/><g class="y3"/></g><g class="gridlayer"><g class="x3"><path class="x3grid crisp" transform="translate(110.2,0)" d="M0,354.58000000000004v169.42" style="stroke: rgb(58, 58, 58); stroke-opacity: 1; stroke-width: 0.5px;"/><path class="x3grid crisp" transform="translate(258.07,0)" d="M0,354.58000000000004v169.42" style="stroke: rgb(58, 58, 58); stroke-opacity: 1; stroke-width: 0.5px;"/><path class="x3grid crisp" transform="translate(405.93,0)" d="M0,354.58000000000004v169.42" style="stroke: rgb(58, 58, 58); stroke-opacity: 1; stroke-width: 0.5px;"/><path class="x3grid crisp" transform="translate(553.8,0)" d="M0,354.58000000000004v169.42" style="stroke: rgb(58, 58, 58); stroke-opacity: 1; stroke-width: 0.5px;"/></g><g class="y3"><path class="y3grid crisp" transform="translate(0,490.12)" d="M80,0h504" style="stroke: rgb(58, 58, 58); stroke-opacity: 1; stroke-width: 0.5px;"/><path class="y3grid crisp" transform="translate(0,456.23)" d="M80,0h504" style="stroke: rgb(58, 58, 58); stroke-opacity: 1; stroke-width: 0.5px;"/><path class="y3grid crisp" transform="translate(0,422.35)" d="M80,0h504" style="stroke: rgb(58, 58, 58); stroke-opacity: 1; stroke-width: 0.5px;"/><path class="y3grid crisp" transform="translate(0,388.46000000000004)" d="M80,0h504" style="stroke: rgb(58, 58, 58); stroke-opacity: 1; stroke-width: 0.5px;"/></g></g><g class="zerolinelayer"/><g class="layer-between"><g class="shapelayer"/><g class="imagelayer"/></g><path class="xlines-below"/><path class="ylines-below"/><g class="overlines-below"/><g class="xaxislayer-below"/><g class="yaxislayer-below"/><g class="overaxes-below"/><g class="overplot"><g class="x3y3" transform="translate(80,354.58000000000004)" clip-path="url(#clip86e1fex3y3plot)"><g class="scatterlayer mlayer"><g class="trace scatter trace5cb964" style="stroke-miterlimit: 2; opacity: 1;"><g class="fills"/><g class="errorbars"/><g class="lines"><path class="js-line" d="M30.2,100.84L178.07,85.99L325.93,58.85L473.8,29.56" style="vector-effect: none; fill: none; stroke: rgb(255, 255, 255); stroke-opacity: 1; stroke-width: 1.6px; opacity: 1;"/></g><g class="points"><path class="point" transform="translate(30.2,100.84)" d="M4,0A4,4 0 1,1 0,-4A4,4 0 0,1 4,0Z" style="opacity: 1; stroke-width: 1px; fill: rgb(255, 255, 255); fill-opacity: 1; stroke: rgb(0, 0, 0); stroke-opacity: 1;"/><path class="point" transform="translate(178.07,85.99)" d="M4,0A4,4 0 1,1 0,-4A4,4 0 0,1 4,0Z" style="opacity: 1; stroke-width: 1px; fill: rgb(255, 255, 255); fill-opacity: 1; stroke: rgb(0, 0, 0); stroke-opacity: 1;"/><path class="point" transform="translate(325.93,58.85)" d="M4,0A4,4 0 1,1 0,-4A4,4 0 0,1 4,0Z" style="opacity: 1; stroke-width: 1px; fill: rgb(255, 255, 255); fill-opacity: 1; stroke: rgb(0, 0, 0); stroke-opacity: 1;"/><path class="point" transform="translate(473.8,29.56)" d="M4,0A4,4 0 1,1 0,-4A4,4 0 0,1 4,0Z" style="opacity: 1; stroke-width: 1px; fill: rgb(255, 255, 255); fill-opacity: 1; stroke: rgb(0, 0, 0); stroke-opacity: 1;"/></g><g class="text"/></g><g class="trace scatter trace6d131a" style="stroke-miterlimit: 2; opacity: 1;"><g class="fills"/><g class="errorbars"/><g class="lines"><path class="js-line" d="M30.2,90.86L178.07,77.88L325.93,53.83L473.8,19.58" style="vector-effect: none; fill: none; stroke: rgb(118, 185, 0); stroke-opacity: 1; stroke-width: 1.4px; opacity: 1;"/></g><g class="points"><path class="point" transform="translate(30.2,90.86)" d="M5.2,0L0,5.2L-5.2,0L0,-5.2Z" style="opacity: 1; stroke-width: 1px; fill: rgb(118, 185, 0); fill-opacity: 1; stroke: rgb(0, 0, 0); stroke-opacity: 1;"/><path class="point" transform="translate(178.07,77.88)" d="M5.2,0L0,5.2L-5.2,0L0,-5.2Z" style="opacity: 1; stroke-width: 1px; fill: rgb(118, 185, 0); fill-opacity: 1; stroke: rgb(0, 0, 0); stroke-opacity: 1;"/><path class="point" transform="translate(325.93,53.83)" d="M5.2,0L0,5.2L-5.2,0L0,-5.2Z" style="opacity: 1; stroke-width: 1px; fill: rgb(118, 185, 0); fill-opacity: 1; stroke: rgb(0, 0, 0); stroke-opacity: 1;"/><path class="point" transform="translate(473.8,19.58)" d="M5.2,0L0,5.2L-5.2,0L0,-5.2Z" style="opacity: 1; stroke-width: 1px; fill: rgb(118, 185, 0); fill-opacity: 1; stroke: rgb(0, 0, 0); stroke-opacity: 1;"/></g><g class="text"/></g><g class="trace scatter traceaaa9d2" style="stroke-miterlimit: 2; opacity: 1;"><g class="fills"/><g class="errorbars"/><g class="lines"><path class="js-line" d="M30.2,91.34L178.07,78.31L325.93,54.59L473.8,22.14" style="vector-effect: none; fill: none; stroke: rgb(0, 113, 197); stroke-opacity: 1; stroke-width: 1.4px; opacity: 1;"/></g><g class="points"><path class="point" transform="translate(30.2,91.34)" d="M4,4H-4V-4H4Z" style="opacity: 1; stroke-width: 1px; fill: rgb(0, 113, 197); fill-opacity: 1; stroke: rgb(0, 0, 0); stroke-opacity: 1;"/><path class="point" transform="translate(178.07,78.31)" d="M4,4H-4V-4H4Z" style="opacity: 1; stroke-width: 1px; fill: rgb(0, 113, 197); fill-opacity: 1; stroke: rgb(0, 0, 0); stroke-opacity: 1;"/><path class="point" transform="translate(325.93,54.59)" d="M4,4H-4V-4H4Z" style="opacity: 1; stroke-width: 1px; fill: rgb(0, 113, 197); fill-opacity: 1; stroke: rgb(0, 0, 0); stroke-opacity: 1;"/><path class="point" transform="translate(473.8,22.14)" d="M4,4H-4V-4H4Z" style="opacity: 1; stroke-width: 1px; fill: rgb(0, 113, 197); fill-opacity: 1; stroke: rgb(0, 0, 0); stroke-opacity: 1;"/></g><g class="text"/></g></g></g></g><g class="zerolinelayer-above"/><path class="xlines-above crisp" d="M79.5,524.25H584.5M79.5,354.33000000000004H584.5" style="fill: none; stroke-width: 0.5px; stroke: rgb(58, 58, 58); stroke-opacity: 1;"/><path class="ylines-above crisp" d="M79.75,354.58000000000004V524M584.25,354.58000000000004V524" style="fill: none; stroke-width: 0.5px; stroke: rgb(58, 58, 58); stroke-opacity: 1;"/><g class="overlines-above"/><g class="xaxislayer-above"><g class="x3tick"><text text-anchor="middle" x="0" y="536.5" transform="translate(110.2,0)" style="font-family: 'Geist Mono', 'JetBrains Mono', 'Roboto Mono', 'SF Mono', Menlo, Consolas, monospace; font-size: 10px; fill: rgb(205, 205, 205); fill-opacity: 1; white-space: pre;">8</text></g><g class="x3tick"><text text-anchor="middle" x="0" y="536.5" style="font-family: 'Geist Mono', 'JetBrains Mono', 'Roboto Mono', 'SF Mono', Menlo, Consolas, monospace; font-size: 10px; fill: rgb(205, 205, 205); fill-opacity: 1; white-space: pre;" transform="translate(258.07,0)">16</text></g><g class="x3tick"><text text-anchor="middle" x="0" y="536.5" style="font-family: 'Geist Mono', 'JetBrains Mono', 'Roboto Mono', 'SF Mono', Menlo, Consolas, monospace; font-size: 10px; fill: rgb(205, 205, 205); fill-opacity: 1; white-space: pre;" transform="translate(405.93,0)">32</text></g><g class="x3tick"><text text-anchor="middle" x="0" y="536.5" style="font-family: 'Geist Mono', 'JetBrains Mono', 'Roboto Mono', 'SF Mono', Menlo, Consolas, monospace; font-size: 10px; fill: rgb(205, 205, 205); fill-opacity: 1; white-space: pre;" transform="translate(553.8,0)">64</text></g></g><g class="yaxislayer-above"><g class="y3tick"><text text-anchor="end" x="77.1" y="4.199999999999999" transform="translate(0,524)" style="font-family: 'Geist Mono', 'JetBrains Mono', 'Roboto Mono', 'SF Mono', Menlo, Consolas, monospace; font-size: 12px; fill: rgb(255, 255, 255); fill-opacity: 1; white-space: pre;">0</text></g><g class="y3tick"><text text-anchor="end" x="77.1" y="4.199999999999999" style="font-family: 'Geist Mono', 'JetBrains Mono', 'Roboto Mono', 'SF Mono', Menlo, Consolas, monospace; font-size: 12px; fill: rgb(255, 255, 255); fill-opacity: 1; white-space: pre;" transform="translate(0,490.12)">5</text></g><g class="y3tick"><text text-anchor="end" x="77.1" y="4.199999999999999" style="font-family: 'Geist Mono', 'JetBrains Mono', 'Roboto Mono', 'SF Mono', Menlo, Consolas, monospace; font-size: 12px; fill: rgb(255, 255, 255); fill-opacity: 1; white-space: pre;" transform="translate(0,456.23)">10</text></g><g class="y3tick"><text text-anchor="end" x="77.1" y="4.199999999999999" style="font-family: 'Geist Mono', 'JetBrains Mono', 'Roboto Mono', 'SF Mono', Menlo, Consolas, monospace; font-size: 12px; fill: rgb(255, 255, 255); fill-opacity: 1; white-space: pre;" transform="translate(0,422.35)">15</text></g><g class="y3tick"><text text-anchor="end" x="77.1" y="4.199999999999999" style="font-family: 'Geist Mono', 'JetBrains Mono', 'Roboto Mono', 'SF Mono', Menlo, Consolas, monospace; font-size: 12px; fill: rgb(255, 255, 255); fill-opacity: 1; white-space: pre;" transform="translate(0,388.46000000000004)">20</text></g><g class="y3tick"><text text-anchor="end" x="77.1" y="4.199999999999999" style="font-family: 'Geist Mono', 'JetBrains Mono', 'Roboto Mono', 'SF Mono', Menlo, Consolas, monospace; font-size: 12px; fill: rgb(255, 255, 255); fill-opacity: 1; white-space: pre;" transform="translate(0,354.58000000000004)">25</text></g></g><g class="overaxes-above"/></g><g class="subplot x4y4"><g class="layer-subplot"><g class="shapelayer"/><g class="imagelayer"/></g><g class="minor-gridlayer"><g class="x4"/><g class="y4"/></g><g class="gridlayer"><g class="x4"><path class="x4grid crisp" transform="translate(718.79,0)" d="M0,354.58000000000004v169.42" style="stroke: rgb(58, 58, 58); stroke-opacity: 1; stroke-width: 0.5px;"/><path class="x4grid crisp" transform="translate(868.73,0)" d="M0,354.58000000000004v169.42" style="stroke: rgb(58, 58, 58); stroke-opacity: 1; stroke-width: 0.5px;"/><path class="x4grid crisp" transform="translate(1018.6600000000001,0)" d="M0,354.58000000000004v169.42" style="stroke: rgb(58, 58, 58); stroke-opacity: 1; stroke-width: 0.5px;"/><path class="x4grid crisp" transform="translate(1168.6,0)" d="M0,354.58000000000004v169.42" style="stroke: rgb(58, 58, 58); stroke-opacity: 1; stroke-width: 0.5px;"/></g><g class="y4"><path class="y4grid crisp" transform="translate(0,490.12)" d="M696,0h503.99999999999994" style="stroke: rgb(58, 58, 58); stroke-opacity: 1; stroke-width: 0.5px;"/><path class="y4grid crisp" transform="translate(0,456.23)" d="M696,0h503.99999999999994" style="stroke: rgb(58, 58, 58); stroke-opacity: 1; stroke-width: 0.5px;"/><path class="y4grid crisp" transform="translate(0,422.35)" d="M696,0h503.99999999999994" style="stroke: rgb(58, 58, 58); stroke-opacity: 1; stroke-width: 0.5px;"/><path class="y4grid crisp" transform="translate(0,388.46000000000004)" d="M696,0h503.99999999999994" style="stroke: rgb(58, 58, 58); stroke-opacity: 1; stroke-width: 0.5px;"/></g></g><g class="zerolinelayer"/><g class="layer-between"><g class="shapelayer"/><g class="imagelayer"/></g><path class="xlines-below"/><path class="ylines-below"/><g class="overlines-below"/><g class="xaxislayer-below"/><g class="yaxislayer-below"/><g class="overaxes-below"/><g class="overplot"><g class="x4y4" transform="translate(696,354.58000000000004)" clip-path="url(#clip86e1fex4y4plot)"><g class="scatterlayer mlayer"><g class="trace scatter tracef8c949" style="stroke-miterlimit: 2; opacity: 1;"><g class="fills"/><g class="errorbars"/><g class="lines"><path class="js-line" d="M22.79,101.2L172.73,90.12L322.66,70.41L472.6,20.04" style="vector-effect: none; fill: none; stroke: rgb(255, 255, 255); stroke-opacity: 1; stroke-width: 1.6px; opacity: 1;"/></g><g class="points"><path class="point" transform="translate(22.79,101.2)" d="M4,0A4,4 0 1,1 0,-4A4,4 0 0,1 4,0Z" style="opacity: 1; stroke-width: 1px; fill: rgb(255, 255, 255); fill-opacity: 1; stroke: rgb(0, 0, 0); stroke-opacity: 1;"/><path class="point" transform="translate(172.73,90.12)" d="M4,0A4,4 0 1,1 0,-4A4,4 0 0,1 4,0Z" style="opacity: 1; stroke-width: 1px; fill: rgb(255, 255, 255); fill-opacity: 1; stroke: rgb(0, 0, 0); stroke-opacity: 1;"/><path class="point" transform="translate(322.66,70.41)" d="M4,0A4,4 0 1,1 0,-4A4,4 0 0,1 4,0Z" style="opacity: 1; stroke-width: 1px; fill: rgb(255, 255, 255); fill-opacity: 1; stroke: rgb(0, 0, 0); stroke-opacity: 1;"/><path class="point" transform="translate(472.6,20.04)" d="M4,0A4,4 0 1,1 0,-4A4,4 0 0,1 4,0Z" style="opacity: 1; stroke-width: 1px; fill: rgb(255, 255, 255); fill-opacity: 1; stroke: rgb(0, 0, 0); stroke-opacity: 1;"/></g><g class="text"/></g><g class="trace scatter traced5298e" style="stroke-miterlimit: 2; opacity: 1;"><g class="fills"/><g class="errorbars"/><g class="lines"><path class="js-line" d="M22.79,117.35L172.73,96.81L322.66,69.09L472.6,22.58" style="vector-effect: none; fill: none; stroke: rgb(118, 185, 0); stroke-opacity: 1; stroke-width: 1.4px; opacity: 1;"/></g><g class="points"><path class="point" transform="translate(22.79,117.35)" d="M5.2,0L0,5.2L-5.2,0L0,-5.2Z" style="opacity: 1; stroke-width: 1px; fill: rgb(118, 185, 0); fill-opacity: 1; stroke: rgb(0, 0, 0); stroke-opacity: 1;"/><path class="point" transform="translate(172.73,96.81)" d="M5.2,0L0,5.2L-5.2,0L0,-5.2Z" style="opacity: 1; stroke-width: 1px; fill: rgb(118, 185, 0); fill-opacity: 1; stroke: rgb(0, 0, 0); stroke-opacity: 1;"/><path class="point" transform="translate(322.66,69.09)" d="M5.2,0L0,5.2L-5.2,0L0,-5.2Z" style="opacity: 1; stroke-width: 1px; fill: rgb(118, 185, 0); fill-opacity: 1; stroke: rgb(0, 0, 0); stroke-opacity: 1;"/><path class="point" transform="translate(472.6,22.58)" d="M5.2,0L0,5.2L-5.2,0L0,-5.2Z" style="opacity: 1; stroke-width: 1px; fill: rgb(118, 185, 0); fill-opacity: 1; stroke: rgb(0, 0, 0); stroke-opacity: 1;"/></g><g class="text"/></g><g class="trace scatter tracec36532" style="stroke-miterlimit: 2; opacity: 1;"><g class="fills"/><g class="errorbars"/><g class="lines"><path class="js-line" d="M22.79,107.21L172.73,95.82L322.66,72.86L472.6,55.74" style="vector-effect: none; fill: none; stroke: rgb(0, 113, 197); stroke-opacity: 1; stroke-width: 1.4px; opacity: 1;"/></g><g class="points"><path class="point" transform="translate(22.79,107.21)" d="M4,4H-4V-4H4Z" style="opacity: 1; stroke-width: 1px; fill: rgb(0, 113, 197); fill-opacity: 1; stroke: rgb(0, 0, 0); stroke-opacity: 1;"/><path class="point" transform="translate(172.73,95.82)" d="M4,4H-4V-4H4Z" style="opacity: 1; stroke-width: 1px; fill: rgb(0, 113, 197); fill-opacity: 1; stroke: rgb(0, 0, 0); stroke-opacity: 1;"/><path class="point" transform="translate(322.66,72.86)" d="M4,4H-4V-4H4Z" style="opacity: 1; stroke-width: 1px; fill: rgb(0, 113, 197); fill-opacity: 1; stroke: rgb(0, 0, 0); stroke-opacity: 1;"/><path class="point" transform="translate(472.6,55.74)" d="M4,4H-4V-4H4Z" style="opacity: 1; stroke-width: 1px; fill: rgb(0, 113, 197); fill-opacity: 1; stroke: rgb(0, 0, 0); stroke-opacity: 1;"/></g><g class="text"/></g></g></g></g><g class="zerolinelayer-above"/><path class="xlines-above crisp" d="M695.5,524.25H1200.5M695.5,354.33000000000004H1200.5" style="fill: none; stroke-width: 0.5px; stroke: rgb(58, 58, 58); stroke-opacity: 1;"/><path class="ylines-above crisp" d="M695.75,354.58000000000004V524M1200.25,354.58000000000004V524" style="fill: none; stroke-width: 0.5px; stroke: rgb(58, 58, 58); stroke-opacity: 1;"/><g class="overlines-above"/><g class="xaxislayer-above"><g class="x4tick"><text text-anchor="middle" x="0" y="536.5" transform="translate(718.79,0)" style="font-family: 'Geist Mono', 'JetBrains Mono', 'Roboto Mono', 'SF Mono', Menlo, Consolas, monospace; font-size: 10px; fill: rgb(205, 205, 205); fill-opacity: 1; white-space: pre;">8</text></g><g class="x4tick"><text text-anchor="middle" x="0" y="536.5" style="font-family: 'Geist Mono', 'JetBrains Mono', 'Roboto Mono', 'SF Mono', Menlo, Consolas, monospace; font-size: 10px; fill: rgb(205, 205, 205); fill-opacity: 1; white-space: pre;" transform="translate(868.73,0)">16</text></g><g class="x4tick"><text text-anchor="middle" x="0" y="536.5" style="font-family: 'Geist Mono', 'JetBrains Mono', 'Roboto Mono', 'SF Mono', Menlo, Consolas, monospace; font-size: 10px; fill: rgb(205, 205, 205); fill-opacity: 1; white-space: pre;" transform="translate(1018.6600000000001,0)">32</text></g><g class="x4tick"><text text-anchor="middle" x="0" y="536.5" style="font-family: 'Geist Mono', 'JetBrains Mono', 'Roboto Mono', 'SF Mono', Menlo, Consolas, monospace; font-size: 10px; fill: rgb(205, 205, 205); fill-opacity: 1; white-space: pre;" transform="translate(1168.6,0)">64</text></g></g><g class="yaxislayer-above"><g class="y4tick"><text text-anchor="end" x="693.1" y="4.199999999999999" transform="translate(0,524)" style="font-family: 'Geist Mono', 'JetBrains Mono', 'Roboto Mono', 'SF Mono', Menlo, Consolas, monospace; font-size: 12px; fill: rgb(255, 255, 255); fill-opacity: 1; white-space: pre;">0</text></g><g class="y4tick"><text text-anchor="end" x="693.1" y="4.199999999999999" style="font-family: 'Geist Mono', 'JetBrains Mono', 'Roboto Mono', 'SF Mono', Menlo, Consolas, monospace; font-size: 12px; fill: rgb(255, 255, 255); fill-opacity: 1; white-space: pre;" transform="translate(0,490.12)">50</text></g><g class="y4tick"><text text-anchor="end" x="693.1" y="4.199999999999999" style="font-family: 'Geist Mono', 'JetBrains Mono', 'Roboto Mono', 'SF Mono', Menlo, Consolas, monospace; font-size: 12px; fill: rgb(255, 255, 255); fill-opacity: 1; white-space: pre;" transform="translate(0,456.23)">100</text></g><g class="y4tick"><text text-anchor="end" x="693.1" y="4.199999999999999" style="font-family: 'Geist Mono', 'JetBrains Mono', 'Roboto Mono', 'SF Mono', Menlo, Consolas, monospace; font-size: 12px; fill: rgb(255, 255, 255); fill-opacity: 1; white-space: pre;" transform="translate(0,422.35)">150</text></g><g class="y4tick"><text text-anchor="end" x="693.1" y="4.199999999999999" style="font-family: 'Geist Mono', 'JetBrains Mono', 'Roboto Mono', 'SF Mono', Menlo, Consolas, monospace; font-size: 12px; fill: rgb(255, 255, 255); fill-opacity: 1; white-space: pre;" transform="translate(0,388.46000000000004)">200</text></g><g class="y4tick"><text text-anchor="end" x="693.1" y="4.199999999999999" style="font-family: 'Geist Mono', 'JetBrains Mono', 'Roboto Mono', 'SF Mono', Menlo, Consolas, monospace; font-size: 12px; fill: rgb(255, 255, 255); fill-opacity: 1; white-space: pre;" transform="translate(0,354.58000000000004)">250</text></g></g><g class="overaxes-above"/></g></g><g class="polarlayer"/><g class="smithlayer"/><g class="ternarylayer"/><g class="geolayer"/><g class="funnelarealayer"/><g class="pielayer"/><g class="iciclelayer"/><g class="treemaplayer"/><g class="sunburstlayer"/><g class="glimages"/><defs id="topdefs-86e1fe"><g class="clips"/><clipPath id="legend86e1fe"><rect width="410" height="29" x="0" y="0"/></clipPath></defs><g class="layer-above"><g class="imagelayer"/><g class="shapelayer"><g class="shape-group" data-index="0" clip-path="url(#clip86e1fex4y4)"><path data-index="0" fill-rule="evenodd" d="M1181.71,374.64000000000004L1175.25,374.64000000000004" style="opacity: 1; stroke: rgb(255, 255, 255); stroke-opacity: 0.85; fill: rgb(0, 0, 0); fill-opacity: 0; stroke-width: 2px;"/></g><g class="shape-group" data-index="1" clip-path="url(#clip86e1fex4y4)"><path data-index="1" fill-rule="evenodd" d="M1181.71,374.64000000000004L1181.71,410.29" style="opacity: 1; stroke: rgb(255, 255, 255); stroke-opacity: 0.85; fill: rgb(0, 0, 0); fill-opacity: 0; stroke-width: 2px;"/></g><g class="shape-group" data-index="2" clip-path="url(#clip86e1fex4y4)"><path data-index="2" fill-rule="evenodd" d="M1181.71,410.29L1175.25,410.29" style="opacity: 1; stroke: rgb(255, 255, 255); stroke-opacity: 0.85; fill: rgb(0, 0, 0); fill-opacity: 0; stroke-width: 2px;"/></g></g></g><g class="infolayer"><g class="legend" pointer-events="all" transform="translate(790,579.1600000000001)"><rect class="bg" shape-rendering="crispEdges" style="stroke: rgb(58, 58, 58); stroke-opacity: 1; fill: rgb(0, 0, 0); fill-opacity: 0; stroke-width: 0px;" width="410" height="29" x="0" y="0"/><g class="scrollbox" transform="" clip-path="url(#legend86e1fe)"><g class="groups" transform=""><g class="traces" transform="translate(0,14.5)" style="opacity: 1;"><text class="legendtext" text-anchor="start" x="40" y="4.680000000000001" style="font-family: Geist, Inter, 'Helvetica Neue', Arial, sans-serif; font-size: 12px; fill: rgb(205, 205, 205); fill-opacity: 1; white-space: pre;">Hardware</text><g class="layers" style="opacity: 1;"><g class="legendfill"/><g class="legendlines"><path class="js-line" d="M5,0h30" style="fill: none; stroke: rgb(255, 255, 255); stroke-opacity: 1; stroke-width: 5px;"/></g><g class="legendsymbols"><g class="legendpoints"><path class="scatterpts" transform="translate(20,0)" d="M6,0A6,6 0 1,1 0,-6A6,6 0 0,1 6,0Z" style="opacity: 1; stroke-width: 2px; fill: rgb(255, 255, 255); fill-opacity: 1; stroke: rgb(0, 0, 0); stroke-opacity: 1;"/></g></g></g><rect class="legendtoggle" x="0" y="-9.5" width="95.53125" height="19" style="fill: rgb(0, 0, 0); fill-opacity: 0;"/></g></g><g class="groups" transform="translate(98.03125,0)"><g class="traces" transform="translate(0,14.5)" style="opacity: 1;"><text class="legendtext" text-anchor="start" x="40" y="4.680000000000001" style="font-family: Geist, Inter, 'Helvetica Neue', Arial, sans-serif; font-size: 12px; fill: rgb(205, 205, 205); fill-opacity: 1; white-space: pre;">DynoSim · MAPE 5–9%</text><g class="layers" style="opacity: 1;"><g class="legendfill"/><g class="legendlines"><path class="js-line" d="M5,0h30" style="fill: none; stroke: rgb(118, 185, 0); stroke-opacity: 1; stroke-width: 5px;"/></g><g class="legendsymbols"><g class="legendpoints"><path class="scatterpts" transform="translate(20,0)" d="M7.8,0L0,7.8L-7.8,0L0,-7.8Z" style="opacity: 1; stroke-width: 2px; fill: rgb(118, 185, 0); fill-opacity: 1; stroke: rgb(0, 0, 0); stroke-opacity: 1;"/></g></g></g><rect class="legendtoggle" x="0" y="-9.5" width="167.59375" height="19" style="fill: rgb(0, 0, 0); fill-opacity: 0;"/></g></g><g class="groups" transform="translate(268.125,0)"><g class="traces" transform="translate(0,14.5)" style="opacity: 1;"><text class="legendtext" text-anchor="start" x="40" y="4.680000000000001" style="font-family: Geist, Inter, 'Helvetica Neue', Arial, sans-serif; font-size: 12px; fill: rgb(205, 205, 205); fill-opacity: 1; white-space: pre;">AIC · MAPE 5–11%</text><g class="layers" style="opacity: 1;"><g class="legendfill"/><g class="legendlines"><path class="js-line" d="M5,0h30" style="fill: none; stroke: rgb(0, 113, 197); stroke-opacity: 1; stroke-width: 5px;"/></g><g class="legendsymbols"><g class="legendpoints"><path class="scatterpts" transform="translate(20,0)" d="M6,6H-6V-6H6Z" style="opacity: 1; stroke-width: 2px; fill: rgb(0, 113, 197); fill-opacity: 1; stroke: rgb(0, 0, 0); stroke-opacity: 1;"/></g></g></g><rect class="legendtoggle" x="0" y="-9.5" width="139.140625" height="19" style="fill: rgb(0, 0, 0); fill-opacity: 0;"/></g></g></g><rect class="scrollbar" rx="20" ry="3" width="0" height="0" style="fill: rgb(128, 139, 164); fill-opacity: 1;" x="0" y="0"/></g><g class="g-gtitle"><text class="gtitle" x="24.8" y="24.800000000000068" text-anchor="start" dy="0.7em" style="opacity: 1; font-family: 'Helvetica Neue', HelveticaNeue, sans-serif; font-size: 42px; fill: rgb(255, 255, 255); fill-opacity: 1; font-weight: 300; white-space: pre;">Concurrency Sweep: DynoSim, AIC, Hardware</text></g><g class="g-xtitle"><text class="xtitle" x="332" y="330.369921875" text-anchor="middle" style="opacity: 1; font-family: Geist, Inter, 'Helvetica Neue', Arial, sans-serif; font-size: 11px; fill: rgb(118, 118, 118); fill-opacity: 1; white-space: pre;">Concurrency</text></g><g class="g-x2title"><text class="x2title" x="948" y="330.369921875" text-anchor="middle" style="opacity: 1; font-family: Geist, Inter, 'Helvetica Neue', Arial, sans-serif; font-size: 11px; fill: rgb(118, 118, 118); fill-opacity: 1; white-space: pre;">Concurrency</text></g><g class="g-x3title"><text class="x3title" x="332" y="554.95" text-anchor="middle" style="opacity: 1; font-family: Geist, Inter, 'Helvetica Neue', Arial, sans-serif; font-size: 11px; fill: rgb(118, 118, 118); fill-opacity: 1; white-space: pre;">Concurrency</text></g><g class="g-x4title"><text class="x4title" x="948" y="554.95" text-anchor="middle" style="opacity: 1; font-family: Geist, Inter, 'Helvetica Neue', Arial, sans-serif; font-size: 11px; fill: rgb(118, 118, 118); fill-opacity: 1; white-space: pre;">Concurrency</text></g><g class="g-ytitle"/><g class="g-y2title"/><g class="g-y3title"/><g class="g-y4title"/><g class="annotation" data-index="0" style="opacity: 1;"><g class="annotation-text-g" transform="rotate(0,127.5,114.22319999999999)"><g class="cursor-pointer" transform="translate(80,105)"><rect class="bg" x="0.5" y="0.5" width="94" height="17" style="stroke-width: 1px; stroke: rgb(0, 0, 0); stroke-opacity: 0; fill: rgb(0, 0, 0); fill-opacity: 0;"/><text class="annotation-text" text-anchor="middle" x="47.53125" y="13" style="font-family: Geist, Inter, 'Helvetica Neue', Arial, sans-serif; font-size: 11px; fill: rgb(118, 118, 118); fill-opacity: 1; white-space: pre;">Output TPS / GPU</text></g></g></g><g class="annotation" data-index="1" style="opacity: 1;"><g class="annotation-text-g" transform="rotate(0,744,114.22319999999999)"><g class="cursor-pointer" transform="translate(696,105)"><rect class="bg" x="0.5" y="0.5" width="95" height="17" style="stroke-width: 1px; stroke: rgb(0, 0, 0); stroke-opacity: 0; fill: rgb(0, 0, 0); fill-opacity: 0;"/><text class="annotation-text" text-anchor="middle" x="47.9921875" y="13" style="font-family: Geist, Inter, 'Helvetica Neue', Arial, sans-serif; font-size: 11px; fill: rgb(118, 118, 118); fill-opacity: 1; white-space: pre;">Output TPS / User</text></g></g></g><g class="annotation" data-index="2" style="opacity: 1;"><g class="annotation-text-g" transform="rotate(0,122.5,338.80320000000006)"><g class="cursor-pointer" transform="translate(80,330)"><rect class="bg" x="0.5" y="0.5" width="84" height="17" style="stroke-width: 1px; stroke: rgb(0, 0, 0); stroke-opacity: 0; fill: rgb(0, 0, 0); fill-opacity: 0;"/><text class="annotation-text" text-anchor="middle" x="42.734375" y="13" style="font-family: Geist, Inter, 'Helvetica Neue', Arial, sans-serif; font-size: 11px; fill: rgb(118, 118, 118); fill-opacity: 1; white-space: pre;">Mean TPOT (ms)</text></g></g></g><g class="annotation" data-index="3" style="opacity: 1;"><g class="annotation-text-g" transform="rotate(0,737.5,338.80320000000006)"><g class="cursor-pointer" transform="translate(696,330)"><rect class="bg" x="0.5" y="0.5" width="82" height="17" style="stroke-width: 1px; stroke: rgb(0, 0, 0); stroke-opacity: 0; fill: rgb(0, 0, 0); fill-opacity: 0;"/><text class="annotation-text" text-anchor="middle" x="41.7109375" y="13" style="font-family: Geist, Inter, 'Helvetica Neue', Arial, sans-serif; font-size: 11px; fill: rgb(118, 118, 118); fill-opacity: 1; white-space: pre;">Mean TTFT (ms)</text></g></g></g><g class="annotation" data-index="4" style="opacity: 1;"><g class="annotation-text-g" transform="rotate(0,532.62,87.47600000000006)"><g class="cursor-pointer" transform="translate(25,72)"><rect class="bg" x="0.5" y="0.5" width="1014" height="29" style="stroke-width: 1px; stroke: rgb(0, 0, 0); stroke-opacity: 0; fill: rgb(0, 0, 0); fill-opacity: 0;"/><text class="annotation-text" text-anchor="middle" x="507.578125" y="23" style="font-family: 'Helvetica Neue', HelveticaNeue, sans-serif; font-size: 22px; fill: rgb(118, 118, 118); fill-opacity: 1; font-weight: 300; white-space: pre;">B200 / MiniMax-M2.5 / TP=4 / ISL/OSL 1K/1K — DynoSim closes the AIC–hardware gap to ~50 ms on TTFT.</text></g></g></g><g class="annotation" data-index="5" style="opacity: 1;"><g class="annotation-text-g" transform="rotate(0,1090.42,483.2232)"><g class="cursor-pointer" transform="translate(991,449)"><rect class="bg" x="0.5" y="0.5" width="198" height="67" style="stroke-width: 1px; stroke: rgb(255, 255, 255); stroke-opacity: 0.18; fill: rgb(20, 20, 20); fill-opacity: 0.65;"/><text class="annotation-text" text-anchor="start" x="11" y="23" style="font-family: 'Helvetica Neue', HelveticaNeue, sans-serif; font-size: 12px; fill: rgb(255, 255, 255); fill-opacity: 1; font-weight: 300; white-space: pre;"><tspan class="line" dy="0em" x="11" y="23"><tspan style="font-weight:bold">Scheduler Simulation</tspan></tspan><tspan class="line" dy="1.3em" x="11" y="23">DynoSim's scheduler effects close</tspan><tspan class="line" dy="2.6em" x="11" y="23">the gap between AIC and hardware</tspan></text></g></g></g></g></svg>