<svg class="main-svg" xmlns="http://www.w3.org/2000/svg" xmlns:xlink="http://www.w3.org/1999/xlink" width="1240" height="560" style="" viewBox="0 0 1240 560"><rect x="0" y="0" width="1240" height="560" style="fill: rgb(0, 0, 0); fill-opacity: 1;"/><defs id="defs-e45ab3"><g class="clips"><clipPath id="clipe45ab3xyplot" class="plotclip"><rect width="1120" height="300"/></clipPath><clipPath class="axesclip" id="clipe45ab3x"><rect x="80" y="0" width="1120" height="560"/></clipPath><clipPath class="axesclip" id="clipe45ab3y"><rect x="0" y="180" width="1240" height="300"/></clipPath><clipPath class="axesclip" id="clipe45ab3xy"><rect x="80" y="180" width="1120" height="300"/></clipPath></g><g class="gradients"/><g class="patterns"/></defs><g class="bglayer"/><g class="layer-below"><g class="imagelayer"/><g class="shapelayer"><g class="shape-group" data-index="0" clip-path="url(#clipe45ab3x)"><path data-index="0" fill-rule="evenodd" d="M935.83,480L935.83,180" style="opacity: 1; stroke: rgb(176, 64, 64); stroke-opacity: 1; fill: rgb(176, 64, 64); fill-opacity: 0.1; stroke-dasharray: 9px, 9px; stroke-width: 1.4px;"/></g></g></g><g class="cartesianlayer"><g class="subplot xy"><g class="layer-subplot"><g class="shapelayer"/><g class="imagelayer"/></g><g class="minor-gridlayer"><g class="x"/><g class="y"/></g><g class="gridlayer"><g class="x"><path class="xgrid crisp" transform="translate(155.04000000000002,0)" d="M0,180v300" style="stroke: rgb(58, 58, 58); stroke-opacity: 1; stroke-width: 0.5px;"/><path class="xgrid crisp" transform="translate(440.32,0)" d="M0,180v300" style="stroke: rgb(58, 58, 58); stroke-opacity: 1; stroke-width: 0.5px;"/><path class="xgrid crisp" transform="translate(650.56,0)" d="M0,180v300" style="stroke: rgb(58, 58, 58); stroke-opacity: 1; stroke-width: 0.5px;"/><path class="xgrid crisp" transform="translate(935.83,0)" d="M0,180v300" style="stroke: rgb(58, 58, 58); stroke-opacity: 1; stroke-width: 0.5px;"/><path class="xgrid crisp" transform="translate(1102.71,0)" d="M0,180v300" style="stroke: rgb(58, 58, 58); stroke-opacity: 1; stroke-width: 0.5px;"/></g><g class="y"><path class="ygrid crisp" transform="translate(0,380)" d="M80,0h1120" style="stroke: rgb(58, 58, 58); stroke-opacity: 1; stroke-width: 0.5px;"/><path class="ygrid crisp" transform="translate(0,280)" d="M80,0h1120" style="stroke: rgb(58, 58, 58); stroke-opacity: 1; stroke-width: 0.5px;"/></g></g><g class="zerolinelayer"/><g class="layer-between"><g class="shapelayer"/><g class="imagelayer"/></g><path class="xlines-below"/><path class="ylines-below"/><g class="overlines-below"/><g class="xaxislayer-below"/><g class="yaxislayer-below"/><g class="overaxes-below"/><g class="overplot"><g class="xy" transform="translate(80,180)" clip-path="url(#clipe45ab3xyplot)"><g class="scatterlayer mlayer"><g class="trace scatter trace0098b8" style="stroke-miterlimit: 2; opacity: 1;"><g class="fills"/><g class="errorbars"/><g class="lines"><path class="js-line" d="M75.04,269.9L360.32,267.78L527.19,267.78L645.59,260.21L737.43,252.29L812.47,246.85L875.91,160.21L930.87,109.69L979.35,92.08L1022.71,61.62" style="vector-effect: none; fill: none; stroke: rgb(0, 113, 197); stroke-opacity: 1; stroke-width: 2.2px; opacity: 1;"/></g><g class="points"><path class="point" transform="translate(75.04,269.9)" d="M5,0A5,5 0 1,1 0,-5A5,5 0 0,1 5,0Z" style="opacity: 1; stroke-width: 1px; fill: rgb(0, 113, 197); fill-opacity: 1; stroke: rgb(0, 0, 0); stroke-opacity: 1;"/><path class="point" transform="translate(360.32,267.78)" d="M5,0A5,5 0 1,1 0,-5A5,5 0 0,1 5,0Z" style="opacity: 1; stroke-width: 1px; fill: rgb(0, 113, 197); fill-opacity: 1; stroke: rgb(0, 0, 0); stroke-opacity: 1;"/><path class="point" transform="translate(527.19,267.78)" d="M5,0A5,5 0 1,1 0,-5A5,5 0 0,1 5,0Z" style="opacity: 1; stroke-width: 1px; fill: rgb(0, 113, 197); fill-opacity: 1; stroke: rgb(0, 0, 0); stroke-opacity: 1;"/><path class="point" transform="translate(645.59,260.21)" d="M5,0A5,5 0 1,1 0,-5A5,5 0 0,1 5,0Z" style="opacity: 1; stroke-width: 1px; fill: rgb(0, 113, 197); fill-opacity: 1; stroke: rgb(0, 0, 0); stroke-opacity: 1;"/><path class="point" transform="translate(737.43,252.29)" d="M5,0A5,5 0 1,1 0,-5A5,5 0 0,1 5,0Z" style="opacity: 1; stroke-width: 1px; fill: rgb(0, 113, 197); fill-opacity: 1; stroke: rgb(0, 0, 0); stroke-opacity: 1;"/><path class="point" transform="translate(812.47,246.85)" d="M5,0A5,5 0 1,1 0,-5A5,5 0 0,1 5,0Z" style="opacity: 1; stroke-width: 1px; fill: rgb(0, 113, 197); fill-opacity: 1; stroke: rgb(0, 0, 0); stroke-opacity: 1;"/><path class="point" transform="translate(875.91,160.21)" d="M5,0A5,5 0 1,1 0,-5A5,5 0 0,1 5,0Z" style="opacity: 1; stroke-width: 1px; fill: rgb(0, 113, 197); fill-opacity: 1; stroke: rgb(0, 0, 0); stroke-opacity: 1;"/><path class="point" transform="translate(930.87,109.69)" d="M5,0A5,5 0 1,1 0,-5A5,5 0 0,1 5,0Z" style="opacity: 1; stroke-width: 1px; fill: rgb(0, 113, 197); fill-opacity: 1; stroke: rgb(0, 0, 0); stroke-opacity: 1;"/><path class="point" transform="translate(979.35,92.08)" d="M5,0A5,5 0 1,1 0,-5A5,5 0 0,1 5,0Z" style="opacity: 1; stroke-width: 1px; fill: rgb(0, 113, 197); fill-opacity: 1; stroke: rgb(0, 0, 0); stroke-opacity: 1;"/><path class="point" transform="translate(1022.71,61.62)" d="M5,0A5,5 0 1,1 0,-5A5,5 0 0,1 5,0Z" style="opacity: 1; stroke-width: 1px; fill: rgb(0, 113, 197); fill-opacity: 1; stroke: rgb(0, 0, 0); stroke-opacity: 1;"/></g><g class="text"/></g></g></g></g><g class="zerolinelayer-above"/><path class="xlines-above crisp" d="M79.5,480.25H1200.5M79.5,179.75H1200.5" style="fill: none; stroke-width: 0.5px; stroke: rgb(58, 58, 58); stroke-opacity: 1;"/><path class="ylines-above crisp" d="M79.75,180V480M1200.25,180V480" style="fill: none; stroke-width: 0.5px; stroke: rgb(58, 58, 58); stroke-opacity: 1;"/><g class="overlines-above"/><g class="xaxislayer-above"><g class="xtick"><text text-anchor="middle" x="0" y="492.5" transform="translate(155.04000000000002,0)" style="font-family: 'Geist Mono', 'JetBrains Mono', 'Roboto Mono', 'SF Mono', Menlo, Consolas, monospace; font-size: 10px; fill: rgb(205, 205, 205); fill-opacity: 1; white-space: pre;">30</text></g><g class="xtick"><text text-anchor="middle" x="0" y="492.5" style="font-family: 'Geist Mono', 'JetBrains Mono', 'Roboto Mono', 'SF Mono', Menlo, Consolas, monospace; font-size: 10px; fill: rgb(205, 205, 205); fill-opacity: 1; white-space: pre;" transform="translate(440.32,0)">60</text></g><g class="xtick"><text text-anchor="middle" x="0" y="492.5" style="font-family: 'Geist Mono', 'JetBrains Mono', 'Roboto Mono', 'SF Mono', Menlo, Consolas, monospace; font-size: 10px; fill: rgb(205, 205, 205); fill-opacity: 1; white-space: pre;" transform="translate(650.56,0)">100</text></g><g class="xtick"><text text-anchor="middle" x="0" y="492.5" style="font-family: 'Geist Mono', 'JetBrains Mono', 'Roboto Mono', 'SF Mono', Menlo, Consolas, monospace; font-size: 10px; fill: rgb(205, 205, 205); fill-opacity: 1; white-space: pre;" transform="translate(935.83,0)">200</text></g><g class="xtick"><text text-anchor="middle" x="0" y="492.5" style="font-family: 'Geist Mono', 'JetBrains Mono', 'Roboto Mono', 'SF Mono', Menlo, Consolas, monospace; font-size: 10px; fill: rgb(205, 205, 205); fill-opacity: 1; white-space: pre;" transform="translate(1102.71,0)">300</text></g></g><g class="yaxislayer-above"><g class="ytick"><text text-anchor="end" x="77.1" y="4.199999999999999" transform="translate(0,480)" style="font-family: 'Geist Mono', 'JetBrains Mono', 'Roboto Mono', 'SF Mono', Menlo, Consolas, monospace; font-size: 12px; fill: rgb(255, 255, 255); fill-opacity: 1; white-space: pre;">10³</text></g><g class="ytick"><text text-anchor="end" x="77.1" y="4.199999999999999" style="font-family: 'Geist Mono', 'JetBrains Mono', 'Roboto Mono', 'SF Mono', Menlo, Consolas, monospace; font-size: 12px; fill: rgb(255, 255, 255); fill-opacity: 1; white-space: pre;" transform="translate(0,380)">10⁴</text></g><g class="ytick"><text text-anchor="end" x="77.1" y="4.199999999999999" style="font-family: 'Geist Mono', 'JetBrains Mono', 'Roboto Mono', 'SF Mono', Menlo, Consolas, monospace; font-size: 12px; fill: rgb(255, 255, 255); fill-opacity: 1; white-space: pre;" transform="translate(0,280)">10⁵</text></g><g class="ytick"><text text-anchor="end" x="77.1" y="4.199999999999999" style="font-family: 'Geist Mono', 'JetBrains Mono', 'Roboto Mono', 'SF Mono', Menlo, Consolas, monospace; font-size: 12px; fill: rgb(255, 255, 255); fill-opacity: 1; white-space: pre;" transform="translate(0,180)">10⁶</text></g></g><g class="overaxes-above"/></g></g><g class="polarlayer"/><g class="smithlayer"/><g class="ternarylayer"/><g class="geolayer"/><g class="funnelarealayer"/><g class="pielayer"/><g class="iciclelayer"/><g class="treemaplayer"/><g class="sunburstlayer"/><g class="glimages"/><defs id="topdefs-e45ab3"><g class="clips"/></defs><g class="layer-above"><g class="imagelayer"/><g class="shapelayer"><g class="shape-group" data-index="1" clip-path="url(#clipe45ab3x)"><path data-index="1" fill-rule="evenodd" d="M935.83,480L935.83,180" style="opacity: 1; stroke: rgb(176, 64, 64); stroke-opacity: 1; fill: rgb(0, 0, 0); fill-opacity: 0; stroke-dasharray: 9px, 9px; stroke-width: 1.4px;"/></g><g class="shape-group" data-index="2"><path data-index="2" fill-rule="evenodd" d="M224080,480L224080,180" style="opacity: 1; stroke: rgb(176, 64, 64); stroke-opacity: 1; fill: rgb(0, 0, 0); fill-opacity: 0; stroke-dasharray: 9px, 9px; stroke-width: 1.4px;"/></g></g></g><g class="infolayer"><g class="g-gtitle"><text class="gtitle" x="24.8" y="28" text-anchor="start" dy="0.7em" style="opacity: 1; font-family: 'Helvetica Neue', HelveticaNeue, sans-serif; font-size: 42px; fill: rgb(255, 255, 255); fill-opacity: 1; font-weight: 300; white-space: pre;">Engine Startup Time Sensitivity Sweep</text></g><g class="g-xtitle"><text class="xtitle" x="640" y="510.95" text-anchor="middle" style="opacity: 1; font-family: Geist, Inter, 'Helvetica Neue', Arial, sans-serif; font-size: 11px; fill: rgb(118, 118, 118); fill-opacity: 1; white-space: pre;">Engine Startup Time (s, log)</text></g><g class="g-ytitle"><text class="ytitle" transform="rotate(-90,48.5,330)" x="48.5" y="330" text-anchor="middle" style="opacity: 1; font-family: Geist, Inter, 'Helvetica Neue', Arial, sans-serif; font-size: 11px; fill: rgb(118, 118, 118); fill-opacity: 1; white-space: pre;">p90 TTFT (ms, log)</text></g><g class="annotation" data-index="0" style="opacity: 1;"><g class="annotation-text-g" transform="rotate(0,942.4,219.5)"><g class="cursor-pointer" transform="translate(886,201)"><rect class="bg" x="0.5" y="0.5" width="111" height="36" style="stroke-width: 1px; stroke: rgb(255, 255, 255); stroke-opacity: 0.18; fill: rgb(20, 20, 20); fill-opacity: 0.65;"/><text class="annotation-text" text-anchor="start" x="11" y="23" style="font-family: 'Helvetica Neue', HelveticaNeue, sans-serif; font-size: 12px; fill: rgb(255, 255, 255); fill-opacity: 1; font-weight: 300; white-space: pre;"><tspan style="font-weight:bold">SLA Cliff ~200 s</tspan></text></g></g></g><g class="annotation" data-index="1" style="opacity: 1;"><g class="annotation-text-g"/></g><g class="annotation" data-index="2" style="opacity: 1;"><g class="annotation-text-g" transform="rotate(0,1123.6,272.5)"><g class="cursor-pointer" transform="translate(1070,246)"><rect class="bg" x="0.5" y="0.5" width="107" height="52" style="stroke-width: 1px; stroke: rgb(255, 255, 255); stroke-opacity: 0.18; fill: rgb(20, 20, 20); fill-opacity: 0.65;"/><text class="annotation-text" text-anchor="start" x="11" y="23" style="font-family: 'Helvetica Neue', HelveticaNeue, sans-serif; font-size: 12px; fill: rgb(255, 255, 255); fill-opacity: 1; font-weight: 300; white-space: pre;"><tspan class="line" dy="0em" x="11" y="23"><tspan style="font-weight:bold">242 s p90 TTFT</tspan></tspan><tspan class="line" dy="1.3em" x="11" y="23">at 300 s startup</tspan></text></g></g></g><g class="annotation" data-index="3" style="opacity: 1;"><g class="annotation-text-g" transform="rotate(0,491.12,87)"><g class="cursor-pointer" transform="translate(25,72)"><rect class="bg" x="0.5" y="0.5" width="931" height="29" style="stroke-width: 1px; stroke: rgb(0, 0, 0); stroke-opacity: 0; fill: rgb(0, 0, 0); fill-opacity: 0;"/><text class="annotation-text" text-anchor="middle" x="466.203125" y="23" style="font-family: 'Helvetica Neue', HelveticaNeue, sans-serif; font-size: 22px; fill: rgb(118, 118, 118); fill-opacity: 1; font-weight: 300; white-space: pre;">Qwen3-32B / TP=2 / H200 — p90 TTFT is flat through ~180 s of startup time, then crosses the SLA.</text></g></g></g></g></svg>