<svg class="main-svg" xmlns="http://www.w3.org/2000/svg" xmlns:xlink="http://www.w3.org/1999/xlink" width="1240" height="560" style="" viewBox="0 0 1240 560"><rect x="0" y="0" width="1240" height="560" style="fill: rgb(0, 0, 0); fill-opacity: 1;"/><defs id="defs-e20ea1"><g class="clips"><clipPath id="clipe20ea1xyplot" class="plotclip"><rect width="504" height="260"/></clipPath><clipPath id="clipe20ea1x2y2plot" class="plotclip"><rect width="503.99999999999994" height="260"/></clipPath><clipPath class="axesclip" id="clipe20ea1x"><rect x="80" y="0" width="504" height="560"/></clipPath><clipPath class="axesclip" id="clipe20ea1y"><rect x="0" y="180" width="1240" height="260"/></clipPath><clipPath class="axesclip" id="clipe20ea1xy"><rect x="80" y="180" width="504" height="260"/></clipPath><clipPath class="axesclip" id="clipe20ea1y2"><rect x="0" y="180" width="1240" height="260"/></clipPath><clipPath class="axesclip" id="clipe20ea1xy2"><rect x="80" y="180" width="504" height="260"/></clipPath><clipPath class="axesclip" id="clipe20ea1x2"><rect x="696" y="0" width="503.99999999999994" height="560"/></clipPath><clipPath class="axesclip" id="clipe20ea1x2y"><rect x="696" y="180" width="503.99999999999994" height="260"/></clipPath><clipPath class="axesclip" id="clipe20ea1x2y2"><rect x="696" y="180" width="503.99999999999994" height="260"/></clipPath></g><g class="gradients"/><g class="patterns"/></defs><g class="bglayer"/><g class="layer-below"><g class="imagelayer"/><g class="shapelayer"/></g><g class="cartesianlayer"><g class="subplot xy"><g class="layer-subplot"><g class="shapelayer"/><g class="imagelayer"/></g><g class="minor-gridlayer"><g class="x"/><g class="y"/></g><g class="gridlayer"><g class="x"><path class="xgrid crisp" transform="translate(132.14,0)" d="M0,180v260" style="stroke: rgb(58, 58, 58); stroke-opacity: 1; stroke-width: 0.5px;"/><path class="xgrid crisp" transform="translate(201.66,0)" d="M0,180v260" style="stroke: rgb(58, 58, 58); stroke-opacity: 1; stroke-width: 0.5px;"/><path class="xgrid crisp" transform="translate(271.16999999999996,0)" d="M0,180v260" style="stroke: rgb(58, 58, 58); stroke-opacity: 1; stroke-width: 0.5px;"/><path class="xgrid crisp" transform="translate(340.69,0)" d="M0,180v260" style="stroke: rgb(58, 58, 58); stroke-opacity: 1; stroke-width: 0.5px;"/><path class="xgrid crisp" transform="translate(410.21,0)" d="M0,180v260" style="stroke: rgb(58, 58, 58); stroke-opacity: 1; stroke-width: 0.5px;"/><path class="xgrid crisp" transform="translate(479.72,0)" d="M0,180v260" style="stroke: rgb(58, 58, 58); stroke-opacity: 1; stroke-width: 0.5px;"/><path class="xgrid crisp" transform="translate(549.24,0)" d="M0,180v260" style="stroke: rgb(58, 58, 58); stroke-opacity: 1; stroke-width: 0.5px;"/></g><g class="y"><path class="ygrid crisp" transform="translate(0,375)" d="M80,0h504" style="stroke: rgb(58, 58, 58); stroke-opacity: 1; stroke-width: 0.5px;"/><path class="ygrid crisp" transform="translate(0,310)" d="M80,0h504" style="stroke: rgb(58, 58, 58); stroke-opacity: 1; stroke-width: 0.5px;"/><path class="ygrid crisp" transform="translate(0,245)" d="M80,0h504" style="stroke: rgb(58, 58, 58); stroke-opacity: 1; stroke-width: 0.5px;"/></g></g><g class="zerolinelayer"/><g class="layer-between"><g class="shapelayer"/><g class="imagelayer"/></g><path class="xlines-below"/><path class="ylines-below"/><g class="overlines-below"/><g class="xaxislayer-below"/><g class="yaxislayer-below"/><g class="overaxes-below"/><g class="overplot"><g class="xy" transform="translate(80,180)" clip-path="url(#clipe20ea1xyplot)"><g class="scatterlayer mlayer"><g class="trace scatter trace769a23" style="stroke-miterlimit: 2; opacity: 1;"><g class="fills"/><g class="errorbars"/><g class="lines"><path class="js-line" d="M52.14,19.57L114.7,45.43L184.22,65L253.74,197.97L319.78,207.16L385.82,214.57L455.34,220.87" style="vector-effect: none; fill: none; stroke: rgb(0, 113, 197); stroke-opacity: 1; stroke-width: 1.6px; opacity: 1;"/></g><g class="points"><path class="point" transform="translate(52.14,19.57)" d="M4,0A4,4 0 1,1 0,-4A4,4 0 0,1 4,0Z" style="opacity: 1; stroke-width: 1px; fill: rgb(0, 113, 197); fill-opacity: 1; stroke: rgb(0, 0, 0); stroke-opacity: 1;"/><path class="point" transform="translate(114.7,45.43)" d="M4,0A4,4 0 1,1 0,-4A4,4 0 0,1 4,0Z" style="opacity: 1; stroke-width: 1px; fill: rgb(0, 113, 197); fill-opacity: 1; stroke: rgb(0, 0, 0); stroke-opacity: 1;"/><path class="point" transform="translate(184.22,65)" d="M4,0A4,4 0 1,1 0,-4A4,4 0 0,1 4,0Z" style="opacity: 1; stroke-width: 1px; fill: rgb(0, 113, 197); fill-opacity: 1; stroke: rgb(0, 0, 0); stroke-opacity: 1;"/><path class="point" transform="translate(253.74,197.97)" d="M4,0A4,4 0 1,1 0,-4A4,4 0 0,1 4,0Z" style="opacity: 1; stroke-width: 1px; fill: rgb(0, 113, 197); fill-opacity: 1; stroke: rgb(0, 0, 0); stroke-opacity: 1;"/><path class="point" transform="translate(319.78,207.16)" d="M4,0A4,4 0 1,1 0,-4A4,4 0 0,1 4,0Z" style="opacity: 1; stroke-width: 1px; fill: rgb(0, 113, 197); fill-opacity: 1; stroke: rgb(0, 0, 0); stroke-opacity: 1;"/><path class="point" transform="translate(385.82,214.57)" d="M4,0A4,4 0 1,1 0,-4A4,4 0 0,1 4,0Z" style="opacity: 1; stroke-width: 1px; fill: rgb(0, 113, 197); fill-opacity: 1; stroke: rgb(0, 0, 0); stroke-opacity: 1;"/><path class="point" transform="translate(455.34,220.87)" d="M4,0A4,4 0 1,1 0,-4A4,4 0 0,1 4,0Z" style="opacity: 1; stroke-width: 1px; fill: rgb(0, 113, 197); fill-opacity: 1; stroke: rgb(0, 0, 0); stroke-opacity: 1;"/></g><g class="text"/></g><g class="trace scatter trace6d739d" style="stroke-miterlimit: 2; opacity: 1;"><g class="fills"/><g class="errorbars"/><g class="lines"/><g class="points"/><g class="text"><g class="textpoint" transform="translate(0,-2.5)"><text x="52.14" y="19.57" text-anchor="start" style="font-family: 'Geist Mono', 'JetBrains Mono', 'Roboto Mono', 'SF Mono', Menlo, Consolas, monospace; font-size: 10px; fill: rgb(0, 113, 197); fill-opacity: 1; white-space: pre;">4 GPU</text></g><g class="textpoint" transform="translate(0,-2.5)"><text x="184.22" y="65" text-anchor="start" style="font-family: 'Geist Mono', 'JetBrains Mono', 'Roboto Mono', 'SF Mono', Menlo, Consolas, monospace; font-size: 10px; fill: rgb(0, 113, 197); fill-opacity: 1; white-space: pre;">8 GPU</text></g><g class="textpoint" transform="translate(0,-2.5)"><text x="319.78" y="207.16" text-anchor="start" style="font-family: 'Geist Mono', 'JetBrains Mono', 'Roboto Mono', 'SF Mono', Menlo, Consolas, monospace; font-size: 10px; fill: rgb(0, 113, 197); fill-opacity: 1; white-space: pre;">12 GPU</text></g><g class="textpoint" transform="translate(0,-2.5)"><text x="455.34" y="220.87" text-anchor="start" style="font-family: 'Geist Mono', 'JetBrains Mono', 'Roboto Mono', 'SF Mono', Menlo, Consolas, monospace; font-size: 10px; fill: rgb(0, 113, 197); fill-opacity: 1; white-space: pre;">16 GPU</text></g></g></g><g class="trace scatter trace0fc1ae" style="stroke-miterlimit: 2; opacity: 1;"><g class="fills"/><g class="errorbars"/><g class="lines"/><g class="points"><path class="point" transform="translate(59.09,236.49)" d="M9.1,0L0,9.1L-9.1,0L0,-9.1Z" style="opacity: 1; stroke-width: 1.5px; fill: rgb(118, 185, 0); fill-opacity: 1; stroke: rgb(0, 0, 0); stroke-opacity: 1;"/></g><g class="text"/></g></g></g></g><g class="zerolinelayer-above"/><path class="xlines-above crisp" d="M79.5,440.25H584.5M79.5,179.75H584.5" style="fill: none; stroke-width: 0.5px; stroke: rgb(58, 58, 58); stroke-opacity: 1;"/><path class="ylines-above crisp" d="M79.75,180V440M584.25,180V440" style="fill: none; stroke-width: 0.5px; stroke: rgb(58, 58, 58); stroke-opacity: 1;"/><g class="overlines-above"/><g class="xaxislayer-above"><g class="xtick"><text text-anchor="middle" x="0" y="452.5" transform="translate(132.14,0)" style="font-family: 'Geist Mono', 'JetBrains Mono', 'Roboto Mono', 'SF Mono', Menlo, Consolas, monospace; font-size: 10px; fill: rgb(205, 205, 205); fill-opacity: 1; white-space: pre;">4</text></g><g class="xtick"><text text-anchor="middle" x="0" y="452.5" style="font-family: 'Geist Mono', 'JetBrains Mono', 'Roboto Mono', 'SF Mono', Menlo, Consolas, monospace; font-size: 10px; fill: rgb(205, 205, 205); fill-opacity: 1; white-space: pre;" transform="translate(201.66,0)">6</text></g><g class="xtick"><text text-anchor="middle" x="0" y="452.5" style="font-family: 'Geist Mono', 'JetBrains Mono', 'Roboto Mono', 'SF Mono', Menlo, Consolas, monospace; font-size: 10px; fill: rgb(205, 205, 205); fill-opacity: 1; white-space: pre;" transform="translate(271.16999999999996,0)">8</text></g><g class="xtick"><text text-anchor="middle" x="0" y="452.5" style="font-family: 'Geist Mono', 'JetBrains Mono', 'Roboto Mono', 'SF Mono', Menlo, Consolas, monospace; font-size: 10px; fill: rgb(205, 205, 205); fill-opacity: 1; white-space: pre;" transform="translate(340.69,0)">10</text></g><g class="xtick"><text text-anchor="middle" x="0" y="452.5" style="font-family: 'Geist Mono', 'JetBrains Mono', 'Roboto Mono', 'SF Mono', Menlo, Consolas, monospace; font-size: 10px; fill: rgb(205, 205, 205); fill-opacity: 1; white-space: pre;" transform="translate(410.21,0)">12</text></g><g class="xtick"><text text-anchor="middle" x="0" y="452.5" style="font-family: 'Geist Mono', 'JetBrains Mono', 'Roboto Mono', 'SF Mono', Menlo, Consolas, monospace; font-size: 10px; fill: rgb(205, 205, 205); fill-opacity: 1; white-space: pre;" transform="translate(479.72,0)">14</text></g><g class="xtick"><text text-anchor="middle" x="0" y="452.5" style="font-family: 'Geist Mono', 'JetBrains Mono', 'Roboto Mono', 'SF Mono', Menlo, Consolas, monospace; font-size: 10px; fill: rgb(205, 205, 205); fill-opacity: 1; white-space: pre;" transform="translate(549.24,0)">16</text></g></g><g class="yaxislayer-above"><g class="ytick"><text text-anchor="end" x="77.1" y="4.199999999999999" transform="translate(0,440)" style="font-family: 'Geist Mono', 'JetBrains Mono', 'Roboto Mono', 'SF Mono', Menlo, Consolas, monospace; font-size: 12px; fill: rgb(255, 255, 255); fill-opacity: 1; white-space: pre;">10³</text></g><g class="ytick"><text text-anchor="end" x="77.1" y="4.199999999999999" style="font-family: 'Geist Mono', 'JetBrains Mono', 'Roboto Mono', 'SF Mono', Menlo, Consolas, monospace; font-size: 12px; fill: rgb(255, 255, 255); fill-opacity: 1; white-space: pre;" transform="translate(0,375)">10⁴</text></g><g class="ytick"><text text-anchor="end" x="77.1" y="4.199999999999999" style="font-family: 'Geist Mono', 'JetBrains Mono', 'Roboto Mono', 'SF Mono', Menlo, Consolas, monospace; font-size: 12px; fill: rgb(255, 255, 255); fill-opacity: 1; white-space: pre;" transform="translate(0,310)">10⁵</text></g><g class="ytick"><text text-anchor="end" x="77.1" y="4.199999999999999" style="font-family: 'Geist Mono', 'JetBrains Mono', 'Roboto Mono', 'SF Mono', Menlo, Consolas, monospace; font-size: 12px; fill: rgb(255, 255, 255); fill-opacity: 1; white-space: pre;" transform="translate(0,245)">10⁶</text></g><g class="ytick"><text text-anchor="end" x="77.1" y="4.199999999999999" style="font-family: 'Geist Mono', 'JetBrains Mono', 'Roboto Mono', 'SF Mono', Menlo, Consolas, monospace; font-size: 12px; fill: rgb(255, 255, 255); fill-opacity: 1; white-space: pre;" transform="translate(0,180)">10⁷</text></g></g><g class="overaxes-above"/></g><g class="subplot x2y2"><g class="layer-subplot"><g class="shapelayer"/><g class="imagelayer"/></g><g class="minor-gridlayer"><g class="x2"/><g class="y2"/></g><g class="gridlayer"><g class="x2"><path class="x2grid crisp" transform="translate(748.14,0)" d="M0,180v260" style="stroke: rgb(58, 58, 58); stroke-opacity: 1; stroke-width: 0.5px;"/><path class="x2grid crisp" transform="translate(817.66,0)" d="M0,180v260" style="stroke: rgb(58, 58, 58); stroke-opacity: 1; stroke-width: 0.5px;"/><path class="x2grid crisp" transform="translate(887.17,0)" d="M0,180v260" style="stroke: rgb(58, 58, 58); stroke-opacity: 1; stroke-width: 0.5px;"/><path class="x2grid crisp" transform="translate(956.69,0)" d="M0,180v260" style="stroke: rgb(58, 58, 58); stroke-opacity: 1; stroke-width: 0.5px;"/><path class="x2grid crisp" transform="translate(1026.21,0)" d="M0,180v260" style="stroke: rgb(58, 58, 58); stroke-opacity: 1; stroke-width: 0.5px;"/><path class="x2grid crisp" transform="translate(1095.72,0)" d="M0,180v260" style="stroke: rgb(58, 58, 58); stroke-opacity: 1; stroke-width: 0.5px;"/><path class="x2grid crisp" transform="translate(1165.24,0)" d="M0,180v260" style="stroke: rgb(58, 58, 58); stroke-opacity: 1; stroke-width: 0.5px;"/></g><g class="y2"><path class="y2grid crisp" transform="translate(0,423.75)" d="M696,0h503.99999999999994" style="stroke: rgb(58, 58, 58); stroke-opacity: 1; stroke-width: 0.5px;"/><path class="y2grid crisp" transform="translate(0,358.75)" d="M696,0h503.99999999999994" style="stroke: rgb(58, 58, 58); stroke-opacity: 1; stroke-width: 0.5px;"/><path class="y2grid crisp" transform="translate(0,293.75)" d="M696,0h503.99999999999994" style="stroke: rgb(58, 58, 58); stroke-opacity: 1; stroke-width: 0.5px;"/><path class="y2grid crisp" transform="translate(0,228.75)" d="M696,0h503.99999999999994" style="stroke: rgb(58, 58, 58); stroke-opacity: 1; stroke-width: 0.5px;"/><path class="y2grid crisp" transform="translate(0,196.25)" d="M696,0h503.99999999999994" style="stroke: rgb(58, 58, 58); stroke-opacity: 1; stroke-width: 0.5px;"/></g></g><g class="zerolinelayer"/><g class="layer-between"><g class="shapelayer"/><g class="imagelayer"/></g><path class="xlines-below"/><path class="ylines-below"/><g class="overlines-below"/><g class="xaxislayer-below"/><g class="yaxislayer-below"/><g class="overaxes-below"/><g class="overplot"><g class="x2y2" transform="translate(696,180)" clip-path="url(#clipe20ea1x2y2plot)"><g class="scatterlayer mlayer"><g class="trace scatter trace179962" style="stroke-miterlimit: 2; opacity: 1;"><g class="fills"/><g class="errorbars"/><g class="lines"><path class="js-line" d="M52.14,21.13L114.7,24.38L184.22,26L253.74,234.65L319.78,235.3L455.34,235.95" style="vector-effect: none; fill: none; stroke: rgb(0, 113, 197); stroke-opacity: 1; stroke-width: 1.6px; opacity: 1;"/></g><g class="points"><path class="point" transform="translate(52.14,21.13)" d="M4,0A4,4 0 1,1 0,-4A4,4 0 0,1 4,0Z" style="opacity: 1; stroke-width: 1px; fill: rgb(0, 113, 197); fill-opacity: 1; stroke: rgb(0, 0, 0); stroke-opacity: 1;"/><path class="point" transform="translate(114.7,24.38)" d="M4,0A4,4 0 1,1 0,-4A4,4 0 0,1 4,0Z" style="opacity: 1; stroke-width: 1px; fill: rgb(0, 113, 197); fill-opacity: 1; stroke: rgb(0, 0, 0); stroke-opacity: 1;"/><path class="point" transform="translate(184.22,26)" d="M4,0A4,4 0 1,1 0,-4A4,4 0 0,1 4,0Z" style="opacity: 1; stroke-width: 1px; fill: rgb(0, 113, 197); fill-opacity: 1; stroke: rgb(0, 0, 0); stroke-opacity: 1;"/><path class="point" transform="translate(253.74,234.65)" d="M4,0A4,4 0 1,1 0,-4A4,4 0 0,1 4,0Z" style="opacity: 1; stroke-width: 1px; fill: rgb(0, 113, 197); fill-opacity: 1; stroke: rgb(0, 0, 0); stroke-opacity: 1;"/><path class="point" transform="translate(319.78,235.3)" d="M4,0A4,4 0 1,1 0,-4A4,4 0 0,1 4,0Z" style="opacity: 1; stroke-width: 1px; fill: rgb(0, 113, 197); fill-opacity: 1; stroke: rgb(0, 0, 0); stroke-opacity: 1;"/><path class="point" transform="translate(385.82,235.63)" d="M4,0A4,4 0 1,1 0,-4A4,4 0 0,1 4,0Z" style="opacity: 1; stroke-width: 1px; fill: rgb(0, 113, 197); fill-opacity: 1; stroke: rgb(0, 0, 0); stroke-opacity: 1;"/><path class="point" transform="translate(455.34,235.95)" d="M4,0A4,4 0 1,1 0,-4A4,4 0 0,1 4,0Z" style="opacity: 1; stroke-width: 1px; fill: rgb(0, 113, 197); fill-opacity: 1; stroke: rgb(0, 0, 0); stroke-opacity: 1;"/></g><g class="text"/></g><g class="trace scatter trace56093a" style="stroke-miterlimit: 2; opacity: 1;"><g class="fills"/><g class="errorbars"/><g class="lines"/><g class="points"/><g class="text"><g class="textpoint" transform="translate(0,-2.5)"><text x="52.14" y="21.13" text-anchor="start" style="font-family: 'Geist Mono', 'JetBrains Mono', 'Roboto Mono', 'SF Mono', Menlo, Consolas, monospace; font-size: 10px; fill: rgb(0, 113, 197); fill-opacity: 1; white-space: pre;">4 GPU</text></g><g class="textpoint" transform="translate(0,-2.5)"><text x="184.22" y="26" text-anchor="start" style="font-family: 'Geist Mono', 'JetBrains Mono', 'Roboto Mono', 'SF Mono', Menlo, Consolas, monospace; font-size: 10px; fill: rgb(0, 113, 197); fill-opacity: 1; white-space: pre;">8 GPU</text></g><g class="textpoint" transform="translate(0,-2.5)"><text x="319.78" y="235.3" text-anchor="start" style="font-family: 'Geist Mono', 'JetBrains Mono', 'Roboto Mono', 'SF Mono', Menlo, Consolas, monospace; font-size: 10px; fill: rgb(0, 113, 197); fill-opacity: 1; white-space: pre;">12 GPU</text></g><g class="textpoint" transform="translate(0,-2.5)"><text x="455.34" y="235.95" text-anchor="start" style="font-family: 'Geist Mono', 'JetBrains Mono', 'Roboto Mono', 'SF Mono', Menlo, Consolas, monospace; font-size: 10px; fill: rgb(0, 113, 197); fill-opacity: 1; white-space: pre;">16 GPU</text></g></g></g><g class="trace scatter trace9e08ec" style="stroke-miterlimit: 2; opacity: 1;"><g class="fills"/><g class="errorbars"/><g class="lines"/><g class="points"><path class="point" transform="translate(59.09,235.63)" d="M9.1,0L0,9.1L-9.1,0L0,-9.1Z" style="opacity: 1; stroke-width: 1.5px; fill: rgb(118, 185, 0); fill-opacity: 1; stroke: rgb(0, 0, 0); stroke-opacity: 1;"/></g><g class="text"/></g></g></g></g><g class="zerolinelayer-above"/><path class="xlines-above crisp" d="M695.5,440.25H1200.5M695.5,179.75H1200.5" style="fill: none; stroke-width: 0.5px; stroke: rgb(58, 58, 58); stroke-opacity: 1;"/><path class="ylines-above crisp" d="M695.75,180V440M1200.25,180V440" style="fill: none; stroke-width: 0.5px; stroke: rgb(58, 58, 58); stroke-opacity: 1;"/><g class="overlines-above"/><g class="xaxislayer-above"><g class="x2tick"><text text-anchor="middle" x="0" y="452.5" transform="translate(748.14,0)" style="font-family: 'Geist Mono', 'JetBrains Mono', 'Roboto Mono', 'SF Mono', Menlo, Consolas, monospace; font-size: 10px; fill: rgb(205, 205, 205); fill-opacity: 1; white-space: pre;">4</text></g><g class="x2tick"><text text-anchor="middle" x="0" y="452.5" style="font-family: 'Geist Mono', 'JetBrains Mono', 'Roboto Mono', 'SF Mono', Menlo, Consolas, monospace; font-size: 10px; fill: rgb(205, 205, 205); fill-opacity: 1; white-space: pre;" transform="translate(817.66,0)">6</text></g><g class="x2tick"><text text-anchor="middle" x="0" y="452.5" style="font-family: 'Geist Mono', 'JetBrains Mono', 'Roboto Mono', 'SF Mono', Menlo, Consolas, monospace; font-size: 10px; fill: rgb(205, 205, 205); fill-opacity: 1; white-space: pre;" transform="translate(887.17,0)">8</text></g><g class="x2tick"><text text-anchor="middle" x="0" y="452.5" style="font-family: 'Geist Mono', 'JetBrains Mono', 'Roboto Mono', 'SF Mono', Menlo, Consolas, monospace; font-size: 10px; fill: rgb(205, 205, 205); fill-opacity: 1; white-space: pre;" transform="translate(956.69,0)">10</text></g><g class="x2tick"><text text-anchor="middle" x="0" y="452.5" style="font-family: 'Geist Mono', 'JetBrains Mono', 'Roboto Mono', 'SF Mono', Menlo, Consolas, monospace; font-size: 10px; fill: rgb(205, 205, 205); fill-opacity: 1; white-space: pre;" transform="translate(1026.21,0)">12</text></g><g class="x2tick"><text text-anchor="middle" x="0" y="452.5" style="font-family: 'Geist Mono', 'JetBrains Mono', 'Roboto Mono', 'SF Mono', Menlo, Consolas, monospace; font-size: 10px; fill: rgb(205, 205, 205); fill-opacity: 1; white-space: pre;" transform="translate(1095.72,0)">14</text></g><g class="x2tick"><text text-anchor="middle" x="0" y="452.5" style="font-family: 'Geist Mono', 'JetBrains Mono', 'Roboto Mono', 'SF Mono', Menlo, Consolas, monospace; font-size: 10px; fill: rgb(205, 205, 205); fill-opacity: 1; white-space: pre;" transform="translate(1165.24,0)">16</text></g></g><g class="yaxislayer-above"><g class="y2tick"><text text-anchor="end" x="693.1" y="4.199999999999999" transform="translate(0,423.75)" style="font-family: 'Geist Mono', 'JetBrains Mono', 'Roboto Mono', 'SF Mono', Menlo, Consolas, monospace; font-size: 12px; fill: rgb(255, 255, 255); fill-opacity: 1; white-space: pre;">0</text></g><g class="y2tick"><text text-anchor="end" x="693.1" y="4.199999999999999" style="font-family: 'Geist Mono', 'JetBrains Mono', 'Roboto Mono', 'SF Mono', Menlo, Consolas, monospace; font-size: 12px; fill: rgb(255, 255, 255); fill-opacity: 1; white-space: pre;" transform="translate(0,358.75)">200</text></g><g class="y2tick"><text text-anchor="end" x="693.1" y="4.199999999999999" style="font-family: 'Geist Mono', 'JetBrains Mono', 'Roboto Mono', 'SF Mono', Menlo, Consolas, monospace; font-size: 12px; fill: rgb(255, 255, 255); fill-opacity: 1; white-space: pre;" transform="translate(0,293.75)">400</text></g><g class="y2tick"><text text-anchor="end" x="693.1" y="4.199999999999999" style="font-family: 'Geist Mono', 'JetBrains Mono', 'Roboto Mono', 'SF Mono', Menlo, Consolas, monospace; font-size: 12px; fill: rgb(255, 255, 255); fill-opacity: 1; white-space: pre;" transform="translate(0,228.75)">600</text></g><g class="y2tick"><text text-anchor="end" x="693.1" y="4.199999999999999" style="font-family: 'Geist Mono', 'JetBrains Mono', 'Roboto Mono', 'SF Mono', Menlo, Consolas, monospace; font-size: 12px; fill: rgb(255, 255, 255); fill-opacity: 1; white-space: pre;" transform="translate(0,196.25)">700</text></g></g><g class="overaxes-above"/></g></g><g class="polarlayer"/><g class="smithlayer"/><g class="ternarylayer"/><g class="geolayer"/><g class="funnelarealayer"/><g class="pielayer"/><g class="iciclelayer"/><g class="treemaplayer"/><g class="sunburstlayer"/><g class="glimages"/><defs id="topdefs-e20ea1"><g class="clips"/><clipPath id="legende20ea1"><rect width="283" height="29" x="0" y="0"/></clipPath></defs><g class="layer-above"><g class="imagelayer"/><g class="shapelayer"/></g><g class="infolayer"><g class="legend" pointer-events="all" transform="translate(917,486.8)"><rect class="bg" shape-rendering="crispEdges" style="stroke: rgb(58, 58, 58); stroke-opacity: 1; fill: rgb(0, 0, 0); fill-opacity: 0; stroke-width: 0px;" width="283" height="29" x="0" y="0"/><g class="scrollbox" transform="" clip-path="url(#legende20ea1)"><g class="groups" transform=""><g class="traces" transform="translate(0,14.5)" style="opacity: 1;"><text class="legendtext" text-anchor="start" x="40" y="4.29" style="font-family: Geist, Inter, 'Helvetica Neue', Arial, sans-serif; font-size: 11px; fill: rgb(205, 205, 205); fill-opacity: 1; white-space: pre;">Static deployment</text><g class="layers" style="opacity: 1;"><g class="legendfill"/><g class="legendlines"><path class="js-line" d="M5,0h30" style="fill: none; stroke: rgb(0, 113, 197); stroke-opacity: 1; stroke-width: 5px;"/></g><g class="legendsymbols"><g class="legendpoints"><path class="scatterpts" transform="translate(20,0)" d="M6,0A6,6 0 1,1 0,-6A6,6 0 0,1 6,0Z" style="opacity: 1; stroke-width: 2px; fill: rgb(0, 113, 197); fill-opacity: 1; stroke: rgb(0, 0, 0); stroke-opacity: 1;"/></g></g></g><rect class="legendtoggle" x="0" y="-9.5" width="133.828125" height="19" style="fill: rgb(0, 0, 0); fill-opacity: 0;"/></g></g><g class="groups" transform="translate(136.328125,0)"><g class="traces" transform="translate(0,14.5)" style="opacity: 1;"><text class="legendtext" text-anchor="start" x="40" y="4.29" style="font-family: Geist, Inter, 'Helvetica Neue', Arial, sans-serif; font-size: 11px; fill: rgb(205, 205, 205); fill-opacity: 1; white-space: pre;">Planner (SLA target)</text><g class="layers" style="opacity: 1;"><g class="legendfill"/><g class="legendlines"/><g class="legendsymbols"><g class="legendpoints"><path class="scatterpts" transform="translate(20,0)" d="M7.8,0L0,7.8L-7.8,0L0,-7.8Z" style="opacity: 1; stroke-width: 2px; fill: rgb(118, 185, 0); fill-opacity: 1; stroke: rgb(0, 0, 0); stroke-opacity: 1;"/></g></g></g><rect class="legendtoggle" x="0" y="-9.5" width="143.59375" height="19" style="fill: rgb(0, 0, 0); fill-opacity: 0;"/></g></g></g><rect class="scrollbar" rx="20" ry="3" width="0" height="0" style="fill: rgb(128, 139, 164); fill-opacity: 1;" x="0" y="0"/></g><g class="g-gtitle"><text class="gtitle" x="24.8" y="22.399999999999977" text-anchor="start" dy="0.7em" style="opacity: 1; font-family: 'Helvetica Neue', HelveticaNeue, sans-serif; font-size: 42px; fill: rgb(255, 255, 255); fill-opacity: 1; font-weight: 300; white-space: pre;">Planner vs Static: Cost-Latency Frontier</text></g><g class="g-xtitle"><text class="xtitle" x="332" y="470.95" text-anchor="middle" style="opacity: 1; font-family: Geist, Inter, 'Helvetica Neue', Arial, sans-serif; font-size: 11px; fill: rgb(118, 118, 118); fill-opacity: 1; white-space: pre;">Cumulative GPU-Hours</text></g><g class="g-x2title"><text class="x2title" x="948" y="470.95" text-anchor="middle" style="opacity: 1; font-family: Geist, Inter, 'Helvetica Neue', Arial, sans-serif; font-size: 11px; fill: rgb(118, 118, 118); fill-opacity: 1; white-space: pre;">Cumulative GPU-Hours</text></g><g class="g-ytitle"><text class="ytitle" transform="rotate(-90,48.5,310)" x="48.5" y="310" text-anchor="middle" style="opacity: 1; font-family: Geist, Inter, 'Helvetica Neue', Arial, sans-serif; font-size: 11px; fill: rgb(118, 118, 118); fill-opacity: 1; white-space: pre;">p90 TTFT (ms, log)</text></g><g class="g-y2title"><text class="y2title" transform="rotate(-90,664.5,310)" x="664.5" y="310" text-anchor="middle" style="opacity: 1; font-family: Geist, Inter, 'Helvetica Neue', Arial, sans-serif; font-size: 11px; fill: rgb(118, 118, 118); fill-opacity: 1; white-space: pre;">p90 ITL (ms)</text></g><g class="annotation" data-index="0" style="opacity: 1;"><g class="annotation-text-g" transform="rotate(0,106,160.6)"><g class="cursor-pointer" transform="translate(80,152)"><rect class="bg" x="0.5" y="0.5" width="51" height="17" style="stroke-width: 1px; stroke: rgb(0, 0, 0); stroke-opacity: 0; fill: rgb(0, 0, 0); fill-opacity: 0;"/><text class="annotation-text" text-anchor="middle" x="25.859375" y="13" style="font-family: Geist, Inter, 'Helvetica Neue', Arial, sans-serif; font-size: 11px; fill: rgb(118, 118, 118); fill-opacity: 1; white-space: pre;">p90 TTFT</text></g></g></g><g class="annotation" data-index="1" style="opacity: 1;"><g class="annotation-text-g" transform="rotate(0,717,160.6)"><g class="cursor-pointer" transform="translate(696,152)"><rect class="bg" x="0.5" y="0.5" width="41" height="17" style="stroke-width: 1px; stroke: rgb(0, 0, 0); stroke-opacity: 0; fill: rgb(0, 0, 0); fill-opacity: 0;"/><text class="annotation-text" text-anchor="middle" x="20.8828125" y="13" style="font-family: Geist, Inter, 'Helvetica Neue', Arial, sans-serif; font-size: 11px; fill: rgb(118, 118, 118); fill-opacity: 1; white-space: pre;">p90 ITL</text></g></g></g><g class="annotation" data-index="2" style="opacity: 1;"><g class="annotation-text-g" transform="rotate(0,505.4200000000001,235)"><g class="cursor-pointer" transform="translate(437,193)"><rect class="bg" x="0.5" y="0.5" width="136" height="83" style="stroke-width: 1px; stroke: rgb(255, 255, 255); stroke-opacity: 0.18; fill: rgb(20, 20, 20); fill-opacity: 0.65;"/><text class="annotation-text" text-anchor="start" x="11" y="23" style="font-family: 'Helvetica Neue', HelveticaNeue, sans-serif; font-size: 12px; fill: rgb(255, 255, 255); fill-opacity: 1; font-weight: 300; white-space: pre;"><tspan class="line" dy="0em" x="11" y="23"><tspan style="font-weight:bold">Planner (SLA target)</tspan></tspan><tspan class="line" dy="1.3em" x="11" y="23">~4 GPU-h budget,</tspan><tspan class="line" dy="2.6em" x="11" y="23">~100x lower TTFT than</tspan><tspan class="line" dy="3.9000000000000004em" x="11" y="23">static at the same cost</tspan></text></g></g></g><g class="annotation" data-index="3" style="opacity: 1;"><g class="annotation-text-g" transform="rotate(0,588.12,81.38000000000001)"><g class="cursor-pointer" transform="translate(25,66)"><rect class="bg" x="0.5" y="0.5" width="1125" height="29" style="stroke-width: 1px; stroke: rgb(0, 0, 0); stroke-opacity: 0; fill: rgb(0, 0, 0); fill-opacity: 0;"/><text class="annotation-text" text-anchor="middle" x="563.2109375" y="23" style="font-family: 'Helvetica Neue', HelveticaNeue, sans-serif; font-size: 22px; fill: rgb(118, 118, 118); fill-opacity: 1; font-weight: 300; white-space: pre;">Qwen3-32B / TP=2 / H200 — Planner matches a 10-GPU static deployment on TTFT and ITL at the cost of a 4-GPU one.</text></g></g></g></g></svg>