<svg xmlns="http://www.w3.org/2000/svg" width="1280" height="480" viewBox="0 0 1280 480" role="img" aria-label="Parallel AIO restore pipeline overlaps memory-region reads">
<rect width="1280" height="480" fill="#000000"/>
<style>
  .title { font-family: "Helvetica Neue", Helvetica, Geist, Arial, sans-serif; font-size: 36px; font-weight: 300; fill: #ffffff; }
  .subtitle { font-family: "Helvetica Neue", Helvetica, Geist, Arial, sans-serif; font-size: 17px; font-weight: 300; fill: #cdcdcd; }
  .panel-label { font-family: Geist, "Helvetica Neue", Helvetica, Arial, sans-serif; font-size: 13px; font-weight: 600; fill: #ffffff; letter-spacing: 0.08em; text-transform: uppercase; }
  .panel-sub { font-family: "Geist Mono", "SF Mono", Menlo, Consolas, monospace; font-size: 12px; font-weight: 400; fill: #8c8c8c; }
  .section-label { font-family: Geist, "Helvetica Neue", Helvetica, Arial, sans-serif; font-size: 12px; font-weight: 500; fill: #cdcdcd; letter-spacing: 0.04em; text-transform: uppercase; }
  .card-title { font-family: Geist, "Helvetica Neue", Helvetica, Arial, sans-serif; font-size: 15px; font-weight: 500; fill: #ffffff; }
  .card-meta { font-family: "Geist Mono", "SF Mono", Menlo, Consolas, monospace; font-size: 11px; font-weight: 400; fill: #8c8c8c; }
  .item { font-family: "Geist Mono", "SF Mono", Menlo, Consolas, monospace; font-size: 11px; font-weight: 400; fill: #cdcdcd; }
  .vma-label { font-family: Geist, "Helvetica Neue", Helvetica, Arial, sans-serif; font-size: 12px; font-weight: 500; fill: #ffffff; }
  .vma-addr { font-family: "Geist Mono", "SF Mono", Menlo, Consolas, monospace; font-size: 10px; font-weight: 400; fill: #8c8c8c; }
  .arrow-label { font-family: Geist, "Helvetica Neue", Helvetica, Arial, sans-serif; font-size: 12px; font-weight: 500; fill: #cdcdcd; }
  .arrow-meta { font-family: "Geist Mono", "SF Mono", Menlo, Consolas, monospace; font-size: 10px; font-weight: 400; fill: #8c8c8c; }
</style>
<text class="title" x="40" y="58">Linux native AIO for anonymous memory restoration</text>
<text class="subtitle" x="40" y="88">Many reads stay in flight at once, keeping storage busy instead of waiting between jobs</text>
<text class="section-label" x="110.0" y="178">JOB LIST &#183; iocbs</text>
<text class="section-label" x="380.0" y="178">AIO CONTEXT</text>
<text class="section-label" x="890.0" y="178">PROCESS ADDRESS SPACE</text>
<rect x="110.0" y="190" width="220" height="28" fill="#0f0f0f" stroke="#2a2a2a" stroke-width="1"/>
<text class="item" x="122.0" y="208.0">offset 0,    64K -> heap</text>
<rect x="110.0" y="222" width="220" height="28" fill="#0f0f0f" stroke="#2a2a2a" stroke-width="1"/>
<text class="item" x="122.0" y="240.0">offset 64K,  128K -> heap</text>
<rect x="110.0" y="254" width="220" height="28" fill="#0f0f0f" stroke="#2a2a2a" stroke-width="1"/>
<text class="item" x="122.0" y="272.0">offset 192K, 32K -> stack</text>
<rect x="110.0" y="286" width="220" height="28" fill="#0f0f0f" stroke="#2a2a2a" stroke-width="1"/>
<text class="item" x="122.0" y="304.0">offset 224K, 96K -> anon</text>
<rect x="110.0" y="318" width="220" height="28" fill="#0f0f0f" stroke="#2a2a2a" stroke-width="1"/>
<text class="item" x="122.0" y="336.0">offset 320K, 64K -> anon</text>
<rect x="110.0" y="350" width="220" height="28" fill="#0f0f0f" stroke="#2a2a2a" stroke-width="1"/>
<text class="item" x="122.0" y="368.0">offset 384K, 48K -> cow</text>
<rect x="110.0" y="382" width="220" height="28" fill="#0f0f0f" stroke="#2a2a2a" stroke-width="1"/>
<text class="item" x="122.0" y="400.0">...</text>
<rect x="380.0" y="190" width="460" height="224" fill="#0f0f0f" stroke="#2a2a2a" stroke-width="1"/>
<text class="card-title" x="610.0" y="226" text-anchor="middle">Window: up to 128 in flight</text>
<rect x="432.5" y="248" width="40" height="14" fill="#4a7500"/>
<rect x="477.5" y="248" width="40" height="14" fill="#4a7500"/>
<rect x="522.5" y="248" width="40" height="14" fill="#4a7500"/>
<rect x="567.5" y="248" width="40" height="14" fill="#4a7500"/>
<rect x="612.5" y="248" width="40" height="14" fill="#4a7500"/>
<rect x="657.5" y="248" width="40" height="14" fill="#4a7500"/>
<rect x="702.5" y="248" width="40" height="14" fill="#4a7500"/>
<rect x="747.5" y="248" width="40" height="14" fill="#4a7500"/>
<rect x="432.5" y="267" width="40" height="14" fill="#4a7500"/>
<rect x="477.5" y="267" width="40" height="14" fill="#4a7500"/>
<rect x="522.5" y="267" width="40" height="14" fill="#4a7500"/>
<rect x="567.5" y="267" width="40" height="14" fill="#4a7500"/>
<rect x="612.5" y="267" width="40" height="14" fill="#4a7500"/>
<rect x="657.5" y="267" width="40" height="14" fill="#4a7500"/>
<rect x="702.5" y="267" width="40" height="14" fill="#4a7500"/>
<rect x="747.5" y="267" width="40" height="14" fill="#4a7500"/>
<rect x="432.5" y="286" width="40" height="14" fill="#4a7500"/>
<rect x="477.5" y="286" width="40" height="14" fill="#4a7500"/>
<rect x="522.5" y="286" width="40" height="14" fill="#4a7500"/>
<rect x="567.5" y="286" width="40" height="14" fill="#4a7500"/>
<rect x="612.5" y="286" width="40" height="14" fill="#4a7500"/>
<rect x="657.5" y="286" width="40" height="14" fill="#4a7500"/>
<rect x="702.5" y="286" width="40" height="14" fill="#4a7500"/>
<rect x="747.5" y="286" width="40" height="14" fill="#4a7500"/>
<rect x="432.5" y="305" width="40" height="14" fill="#3a3a3a"/>
<rect x="477.5" y="305" width="40" height="14" fill="#3a3a3a"/>
<rect x="522.5" y="305" width="40" height="14" fill="#3a3a3a"/>
<rect x="567.5" y="305" width="40" height="14" fill="#3a3a3a"/>
<rect x="612.5" y="305" width="40" height="14" fill="#3a3a3a"/>
<rect x="657.5" y="305" width="40" height="14" fill="#3a3a3a"/>
<rect x="702.5" y="305" width="40" height="14" fill="#3a3a3a"/>
<rect x="747.5" y="305" width="40" height="14" fill="#3a3a3a"/>
<rect x="432.5" y="324" width="40" height="14" fill="#3a3a3a"/>
<rect x="477.5" y="324" width="40" height="14" fill="#3a3a3a"/>
<rect x="522.5" y="324" width="40" height="14" fill="#3a3a3a"/>
<rect x="567.5" y="324" width="40" height="14" fill="#3a3a3a"/>
<rect x="612.5" y="324" width="40" height="14" fill="#3a3a3a"/>
<rect x="657.5" y="324" width="40" height="14" fill="#3a3a3a"/>
<rect x="702.5" y="324" width="40" height="14" fill="#3a3a3a"/>
<rect x="747.5" y="324" width="40" height="14" fill="#3a3a3a"/>
<rect x="432.5" y="343" width="40" height="14" fill="#2a2a2a"/>
<rect x="477.5" y="343" width="40" height="14" fill="#2a2a2a"/>
<rect x="522.5" y="343" width="40" height="14" fill="#2a2a2a"/>
<rect x="567.5" y="343" width="40" height="14" fill="#2a2a2a"/>
<rect x="612.5" y="343" width="40" height="14" fill="#2a2a2a"/>
<rect x="533.0" y="381" width="8" height="8" fill="#4a7500"/>
<text class="arrow-meta" x="547.0" y="388" fill="#cdcdcd">in flight</text>
<rect x="623.0" y="381" width="8" height="8" fill="#3a3a3a"/>
<text class="arrow-meta" x="637.0" y="388" fill="#cdcdcd">queued</text>
<rect x="890.0" y="190.0" width="280" height="40" fill="#0f0f0f" stroke="#2a2a2a" stroke-width="1"/>
<text class="vma-label" x="904.0" y="214.0">heap</text>
<text class="vma-addr" x="1156.0" y="214.0" text-anchor="end">0x55...000</text>
<rect x="890.0" y="236.0" width="280" height="40" fill="#0f0f0f" stroke="#2a2a2a" stroke-width="1"/>
<text class="vma-label" x="904.0" y="260.0">stack</text>
<text class="vma-addr" x="1156.0" y="260.0" text-anchor="end">0x7ff...000</text>
<rect x="890.0" y="282.0" width="280" height="40" fill="#0f0f0f" stroke="#2a2a2a" stroke-width="1"/>
<text class="vma-label" x="904.0" y="306.0">anon mapping</text>
<text class="vma-addr" x="1156.0" y="306.0" text-anchor="end">0x7f1...000</text>
<rect x="890.0" y="328.0" width="280" height="40" fill="#0f0f0f" stroke="#2a2a2a" stroke-width="1"/>
<text class="vma-label" x="904.0" y="352.0">anon mapping</text>
<text class="vma-addr" x="1156.0" y="352.0" text-anchor="end">0x7f2...000</text>
<rect x="890.0" y="374.0" width="280" height="40" fill="#0f0f0f" stroke="#2a2a2a" stroke-width="1"/>
<text class="vma-label" x="904.0" y="398.0">private cow file</text>
<text class="vma-addr" x="1156.0" y="398.0" text-anchor="end">0x7f3...000</text>
<line x1="334.0" y1="302.0" x2="372.0" y2="302.0" stroke="#7a7a7a" stroke-width="1.5"/>
<polygon points="372.0,297.0 379.0,302.0 372.0,307.0" fill="#7a7a7a"/>
<line x1="844.0" y1="302.0" x2="882.0" y2="302.0" stroke="#74b711" stroke-width="1.5"/>
<polygon points="882.0,297.0 889.0,302.0 882.0,307.0" fill="#74b711"/>
</svg>
