<svg xmlns="http://www.w3.org/2000/svg" width="1900" height="1130" viewBox="0 0 1900 1130" style="background:#f8fafc;color-scheme:light">
<style><![CDATA[
      text { font-family: Arial, Helvetica, sans-serif; fill: #0f172a; }
      .title { font-size: 50px; font-weight: 800; }
      .subtitle { font-size: 26px; font-weight: 500; fill: #1e293b; }
      .model-label { font-size: 24px; font-weight: 800; }
      .lane-label { font-size: 20px; font-weight: 700; fill: #475569; }
      .axis-label { font-size: 21px; font-weight: 700; fill: #334155; }
      .legend-label { font-size: 22px; font-weight: 700; fill: #111827; }
      .bar-label { font-size: 19px; font-weight: 800; fill: #0f172a; }
    ]]></style>
<rect width="100%" height="100%" fill="#f8fafc"/>
<rect x="228" y="280" width="1666" height="744" rx="6" fill="#ffffff" stroke="#e2e8f0"/>
<text class="title" x="240" y="64">Dynamo vLLM Snapshot Restore with GMS</text>
<text class="subtitle" x="240" y="110">Single-GPU (1xB200), weights sharded across 8 NVMe SSDs</text>
<line x1="240.0" y1="302" x2="240.0" y2="1036" stroke="#e5e7eb"/>
<line x1="240.0" y1="296" x2="240.0" y2="302" stroke="#64748b"/>
<text class="axis-label" x="240.0" y="292" text-anchor="middle">0s</text>
<text class="axis-label" x="240.0" y="1062" text-anchor="middle">0s</text>
<line x1="1608.3" y1="302" x2="1608.3" y2="1036" stroke="#e5e7eb"/>
<line x1="1608.3" y1="296" x2="1608.3" y2="302" stroke="#64748b"/>
<text class="axis-label" x="1608.3" y="292" text-anchor="middle">5s</text>
<text class="axis-label" x="1608.3" y="1062" text-anchor="middle">5s</text>
<line x1="240" y1="302" x2="1882" y2="302" stroke="#64748b" stroke-width="1"/>
<line x1="240.0" y1="280" x2="240.0" y2="1036" stroke="#0f172a" stroke-width="1.2"/>
<text class="model-label" x="230" y="318.0" text-anchor="end">Qwen3 0.6B</text>
<text class="lane-label" x="230" y="361" text-anchor="end">GMS loader</text>
<line x1="240" y1="384" x2="1882" y2="384" stroke="#f1f5f9"/>
<text class="lane-label" x="230" y="425" text-anchor="end">snapshot agent</text>
<line x1="240" y1="448" x2="1882" y2="448" stroke="#f1f5f9"/>
<text class="lane-label" x="230" y="489" text-anchor="end">worker main</text>
<line x1="240" y1="512" x2="1882" y2="512" stroke="#f1f5f9"/>
<rect x="240.0" y="394" width="36.7" height="50" rx="3" fill="#111827" stroke="#0f172a" stroke-opacity="0.22" stroke-width="1">
<title>Qwen3 0.6B agent setup: 0.134s (0.000s -&gt; 0.134s); raw=restore_agent_to_nsrestore</title>
</rect>
<rect x="279.7" y="394" width="571.1" height="50" rx="3" fill="#377eb8" stroke="#0f172a" stroke-opacity="0.22" stroke-width="1">
<title>Qwen3 0.6B CRIU restore: 2.087s (0.145s -&gt; 2.232s); raw=criu_restore</title>
</rect>
<rect x="542.3" y="403.0" width="46.0" height="32" rx="5" fill="#ffffff" fill-opacity="0.96" stroke="#0f172a" stroke-opacity="0.35"/>
<text class="bar-label" x="565.3" y="426.0" text-anchor="middle">2.1s</text>
<rect x="850.6" y="394" width="165.3" height="50" rx="3" fill="#4daf4a" stroke="#0f172a" stroke-opacity="0.22" stroke-width="1">
<title>Qwen3 0.6B CUDA restore: 0.604s (2.231s -&gt; 2.835s); raw=cuda_restore</title>
</rect>
<rect x="245.7" y="330" width="93.6" height="50" rx="3" fill="#ffd92f" stroke="#0f172a" stroke-opacity="0.22" stroke-width="1">
<title>Qwen3 0.6B GMS load setup: 0.342s (0.021s -&gt; 0.363s); raw=gms_load_wait_for_rw, gms_load_phase_a_allocate_va</title>
</rect>
<rect x="339.3" y="330" width="67.3" height="50" rx="3" fill="#ff7f00" stroke="#0f172a" stroke-opacity="0.22" stroke-width="1">
<title>Qwen3 0.6B GMS load weights: 0.246s (0.363s -&gt; 0.609s); raw=gms_load_phase_b_stream_to_gpu</title>
</rect>
<rect x="406.7" y="330" width="6.0" height="50" rx="3" fill="#a65628" stroke="#0f172a" stroke-opacity="0.22" stroke-width="1">
<title>Qwen3 0.6B GMS commit: 0.022s (0.609s -&gt; 0.631s); raw=gms_load_metadata_commit, gms_load_sentinel</title>
</rect>
<rect x="1032.0" y="458" width="10.7" height="50" rx="3" fill="#6a3d9a" stroke="#0f172a" stroke-opacity="0.22" stroke-width="1">
<title>Qwen3 0.6B wake / remap: 0.039s (2.894s -&gt; 2.933s); raw=main_gms_remap</title>
</rect>
<text class="model-label" x="230" y="552.0" text-anchor="end">Qwen3 8B</text>
<text class="lane-label" x="230" y="595" text-anchor="end">GMS loader</text>
<line x1="240" y1="618" x2="1882" y2="618" stroke="#f1f5f9"/>
<text class="lane-label" x="230" y="659" text-anchor="end">snapshot agent</text>
<line x1="240" y1="682" x2="1882" y2="682" stroke="#f1f5f9"/>
<text class="lane-label" x="230" y="723" text-anchor="end">worker main</text>
<line x1="240" y1="746" x2="1882" y2="746" stroke="#f1f5f9"/>
<rect x="240.0" y="628" width="37.5" height="50" rx="3" fill="#111827" stroke="#0f172a" stroke-opacity="0.22" stroke-width="1">
<title>Qwen3 8B agent setup: 0.137s (0.000s -&gt; 0.137s); raw=restore_agent_to_nsrestore</title>
</rect>
<rect x="280.5" y="628" width="602.1" height="50" rx="3" fill="#377eb8" stroke="#0f172a" stroke-opacity="0.22" stroke-width="1">
<title>Qwen3 8B CRIU restore: 2.200s (0.148s -&gt; 2.348s); raw=criu_restore</title>
</rect>
<rect x="558.5" y="637.0" width="46.0" height="32" rx="5" fill="#ffffff" fill-opacity="0.96" stroke="#0f172a" stroke-opacity="0.35"/>
<text class="bar-label" x="581.5" y="660.0" text-anchor="middle">2.2s</text>
<rect x="882.8" y="628" width="155.7" height="50" rx="3" fill="#4daf4a" stroke="#0f172a" stroke-opacity="0.22" stroke-width="1">
<title>Qwen3 8B CUDA restore: 0.569s (2.349s -&gt; 2.918s); raw=cuda_restore</title>
</rect>
<rect x="247.4" y="564" width="107.3" height="50" rx="3" fill="#ffd92f" stroke="#0f172a" stroke-opacity="0.22" stroke-width="1">
<title>Qwen3 8B GMS load setup: 0.392s (0.027s -&gt; 0.419s); raw=gms_load_wait_for_rw, gms_load_phase_a_allocate_va</title>
</rect>
<rect x="354.7" y="564" width="179.5" height="50" rx="3" fill="#ff7f00" stroke="#0f172a" stroke-opacity="0.22" stroke-width="1">
<title>Qwen3 8B GMS load weights: 0.656s (0.419s -&gt; 1.075s); raw=gms_load_phase_b_stream_to_gpu</title>
</rect>
<rect x="534.2" y="564" width="8.5" height="50" rx="3" fill="#a65628" stroke="#0f172a" stroke-opacity="0.22" stroke-width="1">
<title>Qwen3 8B GMS commit: 0.031s (1.075s -&gt; 1.106s); raw=gms_load_metadata_commit, gms_load_sentinel</title>
</rect>
<rect x="1056.1" y="692" width="24.1" height="50" rx="3" fill="#6a3d9a" stroke="#0f172a" stroke-opacity="0.22" stroke-width="1">
<title>Qwen3 8B wake / remap: 0.088s (2.982s -&gt; 3.070s); raw=main_gms_remap</title>
</rect>
<text class="model-label" x="230" y="786.0" text-anchor="end">GPT-OSS 120B</text>
<text class="lane-label" x="230" y="829" text-anchor="end">GMS loader</text>
<line x1="240" y1="852" x2="1882" y2="852" stroke="#f1f5f9"/>
<text class="lane-label" x="230" y="893" text-anchor="end">snapshot agent</text>
<line x1="240" y1="916" x2="1882" y2="916" stroke="#f1f5f9"/>
<text class="lane-label" x="230" y="957" text-anchor="end">worker main</text>
<line x1="240" y1="980" x2="1882" y2="980" stroke="#f1f5f9"/>
<rect x="240.0" y="862" width="37.5" height="50" rx="3" fill="#111827" stroke="#0f172a" stroke-opacity="0.22" stroke-width="1">
<title>GPT-OSS 120B agent setup: 0.137s (0.000s -&gt; 0.137s); raw=restore_agent_to_nsrestore</title>
</rect>
<rect x="281.1" y="862" width="835.2" height="50" rx="3" fill="#377eb8" stroke="#0f172a" stroke-opacity="0.22" stroke-width="1">
<title>GPT-OSS 120B CRIU restore: 3.052s (0.150s -&gt; 3.202s); raw=criu_restore</title>
</rect>
<rect x="675.7" y="871.0" width="46.0" height="32" rx="5" fill="#ffffff" fill-opacity="0.96" stroke="#0f172a" stroke-opacity="0.35"/>
<text class="bar-label" x="698.7" y="894.0" text-anchor="middle">3.1s</text>
<rect x="1116.3" y="862" width="194.0" height="50" rx="3" fill="#4daf4a" stroke="#0f172a" stroke-opacity="0.22" stroke-width="1">
<title>GPT-OSS 120B CUDA restore: 0.709s (3.202s -&gt; 3.911s); raw=cuda_restore</title>
</rect>
<rect x="243.0" y="798" width="133.0" height="50" rx="3" fill="#ffd92f" stroke="#0f172a" stroke-opacity="0.22" stroke-width="1">
<title>GPT-OSS 120B GMS load setup: 0.486s (0.011s -&gt; 0.497s); raw=gms_load_wait_for_rw, gms_load_phase_a_allocate_va</title>
</rect>
<rect x="376.0" y="798" width="609.7" height="50" rx="3" fill="#ff7f00" stroke="#0f172a" stroke-opacity="0.22" stroke-width="1">
<title>GPT-OSS 120B GMS load weights: 2.228s (0.497s -&gt; 2.725s); raw=gms_load_phase_b_stream_to_gpu</title>
</rect>
<rect x="657.9" y="807.0" width="46.0" height="32" rx="5" fill="#ffffff" fill-opacity="0.96" stroke="#0f172a" stroke-opacity="0.35"/>
<text class="bar-label" x="680.9" y="830.0" text-anchor="middle">2.2s</text>
<rect x="985.7" y="798" width="14.0" height="50" rx="3" fill="#a65628" stroke="#0f172a" stroke-opacity="0.22" stroke-width="1">
<title>GPT-OSS 120B GMS commit: 0.051s (2.725s -&gt; 2.776s); raw=gms_load_metadata_commit, gms_load_sentinel</title>
</rect>
<rect x="1345.9" y="926" width="7.1" height="50" rx="3" fill="#6a3d9a" stroke="#0f172a" stroke-opacity="0.22" stroke-width="1">
<title>GPT-OSS 120B wake / remap: 0.026s (4.041s -&gt; 4.067s); raw=main_gms_remap</title>
</rect>
<rect x="240" y="136" width="21" height="21" rx="2" fill="#111827" stroke="#0f172a" stroke-opacity="0.25"/>
<text class="legend-label" x="271" y="154">agent setup</text>
<rect x="532" y="136" width="21" height="21" rx="2" fill="#377eb8" stroke="#0f172a" stroke-opacity="0.25"/>
<text class="legend-label" x="563" y="154">CRIU restore</text>
<rect x="824" y="136" width="21" height="21" rx="2" fill="#4daf4a" stroke="#0f172a" stroke-opacity="0.25"/>
<text class="legend-label" x="855" y="154">CUDA restore</text>
<rect x="1116" y="136" width="21" height="21" rx="2" fill="#ffd92f" stroke="#0f172a" stroke-opacity="0.25"/>
<text class="legend-label" x="1147" y="154">GMS load setup</text>
<rect x="1408" y="136" width="21" height="21" rx="2" fill="#ff7f00" stroke="#0f172a" stroke-opacity="0.25"/>
<text class="legend-label" x="1439" y="154">GMS load weights</text>
<rect x="240" y="174" width="21" height="21" rx="2" fill="#a65628" stroke="#0f172a" stroke-opacity="0.25"/>
<text class="legend-label" x="271" y="192">GMS commit</text>
<rect x="532" y="174" width="21" height="21" rx="2" fill="#e41a1c" stroke="#0f172a" stroke-opacity="0.25"/>
<text class="legend-label" x="563" y="192">wait for GMS</text>
<rect x="824" y="174" width="21" height="21" rx="2" fill="#6a3d9a" stroke="#0f172a" stroke-opacity="0.25"/>
<text class="legend-label" x="855" y="192">wake / remap</text>
</svg>
