<svg xmlns="http://www.w3.org/2000/svg" width="1900" height="1598" viewBox="0 0 1900 1598" style="background:#f8fafc;color-scheme:light">
<style><![CDATA[
      text { font-family: Arial, Helvetica, sans-serif; fill: #0f172a; }
      .title { font-size: 50px; font-weight: 800; }
      .subtitle { font-size: 26px; font-weight: 500; fill: #1e293b; }
      .model-label { font-size: 24px; font-weight: 800; }
      .lane-label { font-size: 20px; font-weight: 700; fill: #475569; }
      .axis-label { font-size: 21px; font-weight: 700; fill: #334155; }
      .legend-label { font-size: 22px; font-weight: 700; fill: #111827; }
      .bar-label { font-size: 19px; font-weight: 800; fill: #0f172a; }
    ]]></style>
<rect width="100%" height="100%" fill="#f8fafc"/>
<rect x="228" y="280" width="1666" height="1212" rx="6" fill="#ffffff" stroke="#e2e8f0"/>
<text class="title" x="240" y="64">Dynamo vLLM Snapshot Restore with GMS</text>
<text class="subtitle" x="240" y="110">Single-GPU B200 (weights on VAST), TP = 1</text>
<line x1="240.0" y1="302" x2="240.0" y2="1504" stroke="#e5e7eb"/>
<line x1="240.0" y1="296" x2="240.0" y2="302" stroke="#64748b"/>
<text class="axis-label" x="240.0" y="292" text-anchor="middle">0s</text>
<text class="axis-label" x="240.0" y="1530" text-anchor="middle">0s</text>
<line x1="650.5" y1="302" x2="650.5" y2="1504" stroke="#e5e7eb"/>
<line x1="650.5" y1="296" x2="650.5" y2="302" stroke="#64748b"/>
<text class="axis-label" x="650.5" y="292" text-anchor="middle">5s</text>
<text class="axis-label" x="650.5" y="1530" text-anchor="middle">5s</text>
<line x1="1061.0" y1="302" x2="1061.0" y2="1504" stroke="#e5e7eb"/>
<line x1="1061.0" y1="296" x2="1061.0" y2="302" stroke="#64748b"/>
<text class="axis-label" x="1061.0" y="292" text-anchor="middle">10s</text>
<text class="axis-label" x="1061.0" y="1530" text-anchor="middle">10s</text>
<line x1="1471.5" y1="302" x2="1471.5" y2="1504" stroke="#e5e7eb"/>
<line x1="1471.5" y1="296" x2="1471.5" y2="302" stroke="#64748b"/>
<text class="axis-label" x="1471.5" y="292" text-anchor="middle">15s</text>
<text class="axis-label" x="1471.5" y="1530" text-anchor="middle">15s</text>
<line x1="1882.0" y1="302" x2="1882.0" y2="1504" stroke="#e5e7eb"/>
<line x1="1882.0" y1="296" x2="1882.0" y2="302" stroke="#64748b"/>
<text class="axis-label" x="1882.0" y="292" text-anchor="middle">20s</text>
<text class="axis-label" x="1882.0" y="1530" text-anchor="middle">20s</text>
<line x1="240" y1="302" x2="1882" y2="302" stroke="#64748b" stroke-width="1"/>
<line x1="240.0" y1="280" x2="240.0" y2="1504" stroke="#0f172a" stroke-width="1.2"/>
<text class="model-label" x="230" y="318.0" text-anchor="end">Qwen3 0.6B</text>
<text class="lane-label" x="230" y="361" text-anchor="end">GMS loader</text>
<line x1="240" y1="384" x2="1882" y2="384" stroke="#f1f5f9"/>
<text class="lane-label" x="230" y="425" text-anchor="end">snapshot agent</text>
<line x1="240" y1="448" x2="1882" y2="448" stroke="#f1f5f9"/>
<text class="lane-label" x="230" y="489" text-anchor="end">worker main</text>
<line x1="240" y1="512" x2="1882" y2="512" stroke="#f1f5f9"/>
<rect x="240.0" y="394" width="4.7" height="50" rx="3" fill="#111827" stroke="#0f172a" stroke-opacity="0.22" stroke-width="1">
<title>Qwen3 0.6B agent setup: 0.057s (0.000s -&gt; 0.057s); raw=restore_agent_to_nsrestore</title>
</rect>
<rect x="246.2" y="394" width="206.2" height="50" rx="3" fill="#377eb8" stroke="#0f172a" stroke-opacity="0.22" stroke-width="1">
<title>Qwen3 0.6B CRIU restore: 2.511s (0.076s -&gt; 2.587s); raw=criu_restore</title>
</rect>
<rect x="326.3" y="403.0" width="46.0" height="32" rx="5" fill="#ffffff" fill-opacity="0.96" stroke="#0f172a" stroke-opacity="0.35"/>
<text class="bar-label" x="349.3" y="426.0" text-anchor="middle">2.5s</text>
<rect x="452.4" y="394" width="37.9" height="50" rx="3" fill="#4daf4a" stroke="#0f172a" stroke-opacity="0.22" stroke-width="1">
<title>Qwen3 0.6B CUDA restore: 0.462s (2.587s -&gt; 3.049s); raw=cuda_restore</title>
</rect>
<rect x="242.9" y="330" width="10.0" height="50" rx="3" fill="#ffd92f" stroke="#0f172a" stroke-opacity="0.22" stroke-width="1">
<title>Qwen3 0.6B GMS load setup: 0.122s (0.035s -&gt; 0.157s); raw=gms_load_wait_for_rw, gms_load_phase_a_allocate_va</title>
</rect>
<rect x="252.9" y="330" width="12.4" height="50" rx="3" fill="#ff7f00" stroke="#0f172a" stroke-opacity="0.22" stroke-width="1">
<title>Qwen3 0.6B GMS load weights: 0.151s (0.157s -&gt; 0.308s); raw=gms_load_phase_b_stream_to_gpu</title>
</rect>
<rect x="265.3" y="330" width="2.5" height="50" rx="3" fill="#a65628" stroke="#0f172a" stroke-opacity="0.22" stroke-width="1">
<title>Qwen3 0.6B GMS commit: 0.030s (0.308s -&gt; 0.338s); raw=gms_load_metadata_commit, gms_load_sentinel</title>
</rect>
<rect x="494.7" y="458" width="3.1" height="50" rx="3" fill="#6a3d9a" stroke="#0f172a" stroke-opacity="0.22" stroke-width="1">
<title>Qwen3 0.6B wake / remap: 0.038s (3.102s -&gt; 3.140s); raw=main_gms_remap</title>
</rect>
<text class="model-label" x="230" y="552.0" text-anchor="end">Qwen3 8B</text>
<text class="lane-label" x="230" y="595" text-anchor="end">GMS loader</text>
<line x1="240" y1="618" x2="1882" y2="618" stroke="#f1f5f9"/>
<text class="lane-label" x="230" y="659" text-anchor="end">snapshot agent</text>
<line x1="240" y1="682" x2="1882" y2="682" stroke="#f1f5f9"/>
<text class="lane-label" x="230" y="723" text-anchor="end">worker main</text>
<line x1="240" y1="746" x2="1882" y2="746" stroke="#f1f5f9"/>
<rect x="240.0" y="628" width="4.7" height="50" rx="3" fill="#111827" stroke="#0f172a" stroke-opacity="0.22" stroke-width="1">
<title>Qwen3 8B agent setup: 0.057s (0.000s -&gt; 0.057s); raw=restore_agent_to_nsrestore</title>
</rect>
<rect x="246.1" y="628" width="254.3" height="50" rx="3" fill="#377eb8" stroke="#0f172a" stroke-opacity="0.22" stroke-width="1">
<title>Qwen3 8B CRIU restore: 3.097s (0.074s -&gt; 3.171s); raw=criu_restore</title>
</rect>
<rect x="350.2" y="637.0" width="46.0" height="32" rx="5" fill="#ffffff" fill-opacity="0.96" stroke="#0f172a" stroke-opacity="0.35"/>
<text class="bar-label" x="373.2" y="660.0" text-anchor="middle">3.1s</text>
<rect x="500.3" y="628" width="41.0" height="50" rx="3" fill="#4daf4a" stroke="#0f172a" stroke-opacity="0.22" stroke-width="1">
<title>Qwen3 8B CUDA restore: 0.499s (3.171s -&gt; 3.670s); raw=cuda_restore</title>
</rect>
<rect x="240.5" y="564" width="60.0" height="50" rx="3" fill="#ffd92f" stroke="#0f172a" stroke-opacity="0.22" stroke-width="1">
<title>Qwen3 8B GMS load setup: 0.731s (0.006s -&gt; 0.737s); raw=gms_load_wait_for_rw, gms_load_phase_a_allocate_va</title>
</rect>
<rect x="300.5" y="564" width="149.6" height="50" rx="3" fill="#ff7f00" stroke="#0f172a" stroke-opacity="0.22" stroke-width="1">
<title>Qwen3 8B GMS load weights: 1.822s (0.737s -&gt; 2.559s); raw=gms_load_phase_b_stream_to_gpu</title>
</rect>
<rect x="352.3" y="573.0" width="46.0" height="32" rx="5" fill="#ffffff" fill-opacity="0.96" stroke="#0f172a" stroke-opacity="0.35"/>
<text class="bar-label" x="375.3" y="596.0" text-anchor="middle">1.8s</text>
<rect x="450.1" y="564" width="2.7" height="50" rx="3" fill="#a65628" stroke="#0f172a" stroke-opacity="0.22" stroke-width="1">
<title>Qwen3 8B GMS commit: 0.033s (2.559s -&gt; 2.592s); raw=gms_load_metadata_commit, gms_load_sentinel</title>
</rect>
<rect x="548.3" y="692" width="3.0" height="50" rx="3" fill="#6a3d9a" stroke="#0f172a" stroke-opacity="0.22" stroke-width="1">
<title>Qwen3 8B wake / remap: 0.037s (3.755s -&gt; 3.792s); raw=main_gms_remap</title>
</rect>
<text class="model-label" x="230" y="786.0" text-anchor="end">Qwen3 14B</text>
<text class="lane-label" x="230" y="829" text-anchor="end">GMS loader</text>
<line x1="240" y1="852" x2="1882" y2="852" stroke="#f1f5f9"/>
<text class="lane-label" x="230" y="893" text-anchor="end">snapshot agent</text>
<line x1="240" y1="916" x2="1882" y2="916" stroke="#f1f5f9"/>
<text class="lane-label" x="230" y="957" text-anchor="end">worker main</text>
<line x1="240" y1="980" x2="1882" y2="980" stroke="#f1f5f9"/>
<rect x="240.0" y="862" width="4.8" height="50" rx="3" fill="#111827" stroke="#0f172a" stroke-opacity="0.22" stroke-width="1">
<title>Qwen3 14B agent setup: 0.058s (0.000s -&gt; 0.058s); raw=restore_agent_to_nsrestore</title>
</rect>
<rect x="245.7" y="862" width="274.0" height="50" rx="3" fill="#377eb8" stroke="#0f172a" stroke-opacity="0.22" stroke-width="1">
<title>Qwen3 14B CRIU restore: 3.338s (0.070s -&gt; 3.408s); raw=criu_restore</title>
</rect>
<rect x="359.8" y="871.0" width="46.0" height="32" rx="5" fill="#ffffff" fill-opacity="0.96" stroke="#0f172a" stroke-opacity="0.35"/>
<text class="bar-label" x="382.8" y="894.0" text-anchor="middle">3.3s</text>
<rect x="519.8" y="862" width="43.8" height="50" rx="3" fill="#4daf4a" stroke="#0f172a" stroke-opacity="0.22" stroke-width="1">
<title>Qwen3 14B CUDA restore: 0.534s (3.408s -&gt; 3.942s); raw=cuda_restore</title>
</rect>
<rect x="563.8" y="862" width="28.1" height="50" rx="3" fill="#e41a1c" stroke="#0f172a" stroke-opacity="0.22" stroke-width="1">
<title>Qwen3 14B wait for GMS: 0.342s (3.944s -&gt; 4.286s); raw=agent_wait_after_nsrestore_for_gms</title>
</rect>
<rect x="241.1" y="798" width="60.5" height="50" rx="3" fill="#ffd92f" stroke="#0f172a" stroke-opacity="0.22" stroke-width="1">
<title>Qwen3 14B GMS load setup: 0.737s (0.014s -&gt; 0.751s); raw=gms_load_wait_for_rw, gms_load_phase_a_allocate_va</title>
</rect>
<rect x="301.7" y="798" width="286.9" height="50" rx="3" fill="#ff7f00" stroke="#0f172a" stroke-opacity="0.22" stroke-width="1">
<title>Qwen3 14B GMS load weights: 3.495s (0.751s -&gt; 4.246s); raw=gms_load_phase_b_stream_to_gpu</title>
</rect>
<rect x="422.1" y="807.0" width="46.0" height="32" rx="5" fill="#ffffff" fill-opacity="0.96" stroke="#0f172a" stroke-opacity="0.35"/>
<text class="bar-label" x="445.1" y="830.0" text-anchor="middle">3.5s</text>
<rect x="588.6" y="798" width="3.3" height="50" rx="3" fill="#a65628" stroke="#0f172a" stroke-opacity="0.22" stroke-width="1">
<title>Qwen3 14B GMS commit: 0.040s (4.246s -&gt; 4.286s); raw=gms_load_metadata_commit, gms_load_sentinel</title>
</rect>
<rect x="597.4" y="926" width="3.0" height="50" rx="3" fill="#6a3d9a" stroke="#0f172a" stroke-opacity="0.22" stroke-width="1">
<title>Qwen3 14B wake / remap: 0.036s (4.353s -&gt; 4.389s); raw=main_gms_remap</title>
</rect>
<text class="model-label" x="230" y="1020.0" text-anchor="end">Qwen3 32B</text>
<text class="lane-label" x="230" y="1063" text-anchor="end">GMS loader</text>
<line x1="240" y1="1086" x2="1882" y2="1086" stroke="#f1f5f9"/>
<text class="lane-label" x="230" y="1127" text-anchor="end">snapshot agent</text>
<line x1="240" y1="1150" x2="1882" y2="1150" stroke="#f1f5f9"/>
<text class="lane-label" x="230" y="1191" text-anchor="end">worker main</text>
<line x1="240" y1="1214" x2="1882" y2="1214" stroke="#f1f5f9"/>
<rect x="240.0" y="1096" width="4.8" height="50" rx="3" fill="#111827" stroke="#0f172a" stroke-opacity="0.22" stroke-width="1">
<title>Qwen3 32B agent setup: 0.059s (0.000s -&gt; 0.059s); raw=restore_agent_to_nsrestore</title>
</rect>
<rect x="245.8" y="1096" width="288.9" height="50" rx="3" fill="#377eb8" stroke="#0f172a" stroke-opacity="0.22" stroke-width="1">
<title>Qwen3 32B CRIU restore: 3.519s (0.071s -&gt; 3.590s); raw=criu_restore</title>
</rect>
<rect x="367.3" y="1105.0" width="46.0" height="32" rx="5" fill="#ffffff" fill-opacity="0.96" stroke="#0f172a" stroke-opacity="0.35"/>
<text class="bar-label" x="390.3" y="1128.0" text-anchor="middle">3.5s</text>
<rect x="534.7" y="1096" width="50.7" height="50" rx="3" fill="#4daf4a" stroke="#0f172a" stroke-opacity="0.22" stroke-width="1">
<title>Qwen3 32B CUDA restore: 0.617s (3.590s -&gt; 4.207s); raw=cuda_restore</title>
</rect>
<rect x="585.6" y="1096" width="337.3" height="50" rx="3" fill="#e41a1c" stroke="#0f172a" stroke-opacity="0.22" stroke-width="1">
<title>Qwen3 32B wait for GMS: 4.109s (4.209s -&gt; 8.318s); raw=agent_wait_after_nsrestore_for_gms</title>
</rect>
<rect x="731.2" y="1105.0" width="46.0" height="32" rx="5" fill="#ffffff" fill-opacity="0.96" stroke="#0f172a" stroke-opacity="0.35"/>
<text class="bar-label" x="754.2" y="1128.0" text-anchor="middle">4.1s</text>
<rect x="240.5" y="1032" width="77.9" height="50" rx="3" fill="#ffd92f" stroke="#0f172a" stroke-opacity="0.22" stroke-width="1">
<title>Qwen3 32B GMS load setup: 0.949s (0.006s -&gt; 0.955s); raw=gms_load_wait_for_rw, gms_load_phase_a_allocate_va</title>
</rect>
<rect x="318.4" y="1032" width="600.1" height="50" rx="3" fill="#ff7f00" stroke="#0f172a" stroke-opacity="0.22" stroke-width="1">
<title>Qwen3 32B GMS load weights: 7.309s (0.955s -&gt; 8.264s); raw=gms_load_phase_b_stream_to_gpu</title>
</rect>
<rect x="595.4" y="1041.0" width="46.0" height="32" rx="5" fill="#ffffff" fill-opacity="0.96" stroke="#0f172a" stroke-opacity="0.35"/>
<text class="bar-label" x="618.4" y="1064.0" text-anchor="middle">7.3s</text>
<rect x="918.5" y="1032" width="4.4" height="50" rx="3" fill="#a65628" stroke="#0f172a" stroke-opacity="0.22" stroke-width="1">
<title>Qwen3 32B GMS commit: 0.054s (8.264s -&gt; 8.318s); raw=gms_load_metadata_commit, gms_load_sentinel</title>
</rect>
<rect x="935.4" y="1160" width="4.8" height="50" rx="3" fill="#6a3d9a" stroke="#0f172a" stroke-opacity="0.22" stroke-width="1">
<title>Qwen3 32B wake / remap: 0.059s (8.470s -&gt; 8.529s); raw=main_gms_remap</title>
</rect>
<text class="model-label" x="230" y="1254.0" text-anchor="end">GPT-OSS 120B</text>
<text class="lane-label" x="230" y="1297" text-anchor="end">GMS loader</text>
<line x1="240" y1="1320" x2="1882" y2="1320" stroke="#f1f5f9"/>
<text class="lane-label" x="230" y="1361" text-anchor="end">snapshot agent</text>
<line x1="240" y1="1384" x2="1882" y2="1384" stroke="#f1f5f9"/>
<text class="lane-label" x="230" y="1425" text-anchor="end">worker main</text>
<line x1="240" y1="1448" x2="1882" y2="1448" stroke="#f1f5f9"/>
<rect x="240.0" y="1330" width="4.9" height="50" rx="3" fill="#111827" stroke="#0f172a" stroke-opacity="0.22" stroke-width="1">
<title>GPT-OSS 120B agent setup: 0.060s (0.000s -&gt; 0.060s); raw=restore_agent_to_nsrestore</title>
</rect>
<rect x="246.1" y="1330" width="370.4" height="50" rx="3" fill="#377eb8" stroke="#0f172a" stroke-opacity="0.22" stroke-width="1">
<title>GPT-OSS 120B CRIU restore: 4.511s (0.074s -&gt; 4.585s); raw=criu_restore</title>
</rect>
<rect x="408.3" y="1339.0" width="46.0" height="32" rx="5" fill="#ffffff" fill-opacity="0.96" stroke="#0f172a" stroke-opacity="0.35"/>
<text class="bar-label" x="431.3" y="1362.0" text-anchor="middle">4.5s</text>
<rect x="616.4" y="1330" width="61.9" height="50" rx="3" fill="#4daf4a" stroke="#0f172a" stroke-opacity="0.22" stroke-width="1">
<title>GPT-OSS 120B CUDA restore: 0.754s (4.585s -&gt; 5.339s); raw=cuda_restore</title>
</rect>
<rect x="678.6" y="1330" width="409.8" height="50" rx="3" fill="#e41a1c" stroke="#0f172a" stroke-opacity="0.22" stroke-width="1">
<title>GPT-OSS 120B wait for GMS: 4.992s (5.342s -&gt; 10.334s); raw=agent_wait_after_nsrestore_for_gms</title>
</rect>
<rect x="860.5" y="1339.0" width="46.0" height="32" rx="5" fill="#ffffff" fill-opacity="0.96" stroke="#0f172a" stroke-opacity="0.35"/>
<text class="bar-label" x="883.5" y="1362.0" text-anchor="middle">5.0s</text>
<rect x="241.9" y="1266" width="84.9" height="50" rx="3" fill="#ffd92f" stroke="#0f172a" stroke-opacity="0.22" stroke-width="1">
<title>GPT-OSS 120B GMS load setup: 1.034s (0.023s -&gt; 1.057s); raw=gms_load_wait_for_rw, gms_load_phase_a_allocate_va</title>
</rect>
<rect x="261.3" y="1275.0" width="46.0" height="32" rx="5" fill="#ffffff" fill-opacity="0.96" stroke="#0f172a" stroke-opacity="0.35"/>
<text class="bar-label" x="284.3" y="1298.0" text-anchor="middle">1.0s</text>
<rect x="326.8" y="1266" width="757.2" height="50" rx="3" fill="#ff7f00" stroke="#0f172a" stroke-opacity="0.22" stroke-width="1">
<title>GPT-OSS 120B GMS load weights: 9.223s (1.057s -&gt; 10.280s); raw=gms_load_phase_b_stream_to_gpu</title>
</rect>
<rect x="682.4" y="1275.0" width="46.0" height="32" rx="5" fill="#ffffff" fill-opacity="0.96" stroke="#0f172a" stroke-opacity="0.35"/>
<text class="bar-label" x="705.4" y="1298.0" text-anchor="middle">9.2s</text>
<rect x="1084.0" y="1266" width="4.4" height="50" rx="3" fill="#a65628" stroke="#0f172a" stroke-opacity="0.22" stroke-width="1">
<title>GPT-OSS 120B GMS commit: 0.054s (10.280s -&gt; 10.334s); raw=gms_load_metadata_commit, gms_load_sentinel</title>
</rect>
<rect x="1096.5" y="1394" width="2.0" height="50" rx="3" fill="#6a3d9a" stroke="#0f172a" stroke-opacity="0.22" stroke-width="1">
<title>GPT-OSS 120B wake / remap: 0.024s (10.433s -&gt; 10.457s); raw=main_gms_remap</title>
</rect>
<rect x="240" y="136" width="21" height="21" rx="2" fill="#111827" stroke="#0f172a" stroke-opacity="0.25"/>
<text class="legend-label" x="271" y="154">agent setup</text>
<rect x="532" y="136" width="21" height="21" rx="2" fill="#377eb8" stroke="#0f172a" stroke-opacity="0.25"/>
<text class="legend-label" x="563" y="154">CRIU restore</text>
<rect x="824" y="136" width="21" height="21" rx="2" fill="#4daf4a" stroke="#0f172a" stroke-opacity="0.25"/>
<text class="legend-label" x="855" y="154">CUDA restore</text>
<rect x="1116" y="136" width="21" height="21" rx="2" fill="#ffd92f" stroke="#0f172a" stroke-opacity="0.25"/>
<text class="legend-label" x="1147" y="154">GMS load setup</text>
<rect x="1408" y="136" width="21" height="21" rx="2" fill="#ff7f00" stroke="#0f172a" stroke-opacity="0.25"/>
<text class="legend-label" x="1439" y="154">GMS load weights</text>
<rect x="240" y="174" width="21" height="21" rx="2" fill="#a65628" stroke="#0f172a" stroke-opacity="0.25"/>
<text class="legend-label" x="271" y="192">GMS commit</text>
<rect x="532" y="174" width="21" height="21" rx="2" fill="#e41a1c" stroke="#0f172a" stroke-opacity="0.25"/>
<text class="legend-label" x="563" y="192">wait for GMS</text>
<rect x="824" y="174" width="21" height="21" rx="2" fill="#6a3d9a" stroke="#0f172a" stroke-opacity="0.25"/>
<text class="legend-label" x="855" y="192">wake / remap</text>
</svg>
