<svg xmlns="http://www.w3.org/2000/svg" width="1900" height="1176" viewBox="0 0 1900 1176" style="background:#f8fafc;color-scheme:light">
<style>
  text { font-family: Inter, Arial, Helvetica, sans-serif; letter-spacing: 0; fill: #0F172A; }
  .title { font-size: 50px; font-weight: 800; }
  .subtitle { font-size: 26px; fill: #475569; }
  .axis, .axis-label { font-size: 21px; font-weight: 700; fill: #334155; }
  .model, .model-label { font-size: 24px; font-weight: 800; fill: #0F172A; }
  .lane-label { font-size: 20px; font-weight: 700; fill: #475569; }
  .legend, .legend-label { font-size: 22px; font-weight: 700; fill: #1E293B; }
  .bar-label { font-size: 19px; font-weight: 800; fill: #0F172A; }
</style>
<rect width="100%" height="100%" fill="#f8fafc"/>
<rect x="228" y="280" width="1666" height="694" rx="6" fill="#ffffff" stroke="#e2e8f0"/>
<text class="title" x="240" y="64">Dynamo vLLM Snapshot Restore with GMS</text>
<text class="subtitle" x="240" y="110">Single-GPU (1xB200), weights on NFS</text>
<line x1="240.0" y1="302" x2="240.0" y2="986" stroke="#e5e7eb"/>
<line x1="240.0" y1="296" x2="240.0" y2="302" stroke="#64748b"/>
<text class="axis-label" x="240.0" y="292" text-anchor="middle">0.0s</text>
<text class="axis-label" x="240.0" y="1012" text-anchor="middle">0.0s</text>
<line x1="787.3" y1="302" x2="787.3" y2="986" stroke="#e5e7eb"/>
<line x1="787.3" y1="296" x2="787.3" y2="302" stroke="#64748b"/>
<text class="axis-label" x="787.3" y="292" text-anchor="middle">5.0s</text>
<text class="axis-label" x="787.3" y="1012" text-anchor="middle">5.0s</text>
<line x1="1334.7" y1="302" x2="1334.7" y2="986" stroke="#e5e7eb"/>
<line x1="1334.7" y1="296" x2="1334.7" y2="302" stroke="#64748b"/>
<text class="axis-label" x="1334.7" y="292" text-anchor="middle">10s</text>
<text class="axis-label" x="1334.7" y="1012" text-anchor="middle">10s</text>
<line x1="1882.0" y1="302" x2="1882.0" y2="986" stroke="#e5e7eb"/>
<line x1="1882.0" y1="296" x2="1882.0" y2="302" stroke="#64748b"/>
<text class="axis-label" x="1882.0" y="292" text-anchor="middle">15s</text>
<text class="axis-label" x="1882.0" y="1012" text-anchor="middle">15s</text>
<line x1="240" y1="302" x2="1882" y2="302" stroke="#64748b" stroke-width="1"/>
<line x1="240" y1="280" x2="240" y2="986" stroke="#0f172a" stroke-width="1.2"/>
<text class="model-label" x="230" y="318" text-anchor="end">Qwen3 0.6B</text>
<text class="lane-label" x="230" y="361" text-anchor="end">GMS loader</text>
<line x1="240" y1="384" x2="1882" y2="384" stroke="#f1f5f9"/>
<rect x="243.8" y="330" width="13.4" height="50" rx="3" fill="#ffd92f" stroke="#0f172a" stroke-opacity="0.22" stroke-width="1">
<title>Qwen3 0.6B GMS load setup: 0.122s (0.035s -&gt; 0.157s); raw=gms_load_wait_for_rw, gms_load_phase_a_allocate_va</title>
</rect>
<rect x="257.2" y="330" width="16.5" height="50" rx="3" fill="#ff7f00" stroke="#0f172a" stroke-opacity="0.22" stroke-width="1">
<title>Qwen3 0.6B GMS load weights: 0.151s (0.157s -&gt; 0.308s); raw=gms_load_phase_b_stream_to_gpu</title>
</rect>
<rect x="273.7" y="330" width="3.3" height="50" rx="3" fill="#a65628" stroke="#0f172a" stroke-opacity="0.22" stroke-width="1">
<title>Qwen3 0.6B GMS commit: 0.030s (0.308s -&gt; 0.338s); raw=gms_load_metadata_commit, gms_load_sentinel</title>
</rect>
<text class="lane-label" x="230" y="425" text-anchor="end">snapshot agent</text>
<line x1="240" y1="448" x2="1882" y2="448" stroke="#f1f5f9"/>
<rect x="240.0" y="394" width="6.2" height="50" rx="3" fill="#111827" stroke="#0f172a" stroke-opacity="0.22" stroke-width="1">
<title>Qwen3 0.6B agent setup: 0.057s (0.000s -&gt; 0.057s); raw=restore_agent_to_nsrestore</title>
</rect>
<rect x="248.3" y="394" width="274.9" height="50" rx="3" fill="#377eb8" stroke="#0f172a" stroke-opacity="0.22" stroke-width="1">
<title>Qwen3 0.6B CRIU restore: 2.511s (0.076s -&gt; 2.587s); raw=criu_restore</title>
</rect>
<rect x="354.8" y="403.0" width="62.0" height="32" rx="5" fill="#FFFFFF" fill-opacity="0.96" stroke="#0F172A" stroke-opacity="0.35"/>
<text x="385.8" y="426.0" class="bar-label" text-anchor="middle">2.5s</text>
<rect x="523.2" y="394" width="50.6" height="50" rx="3" fill="#4daf4a" stroke="#0f172a" stroke-opacity="0.22" stroke-width="1">
<title>Qwen3 0.6B CUDA restore: 0.462s (2.587s -&gt; 3.049s); raw=cuda_restore</title>
</rect>
<text class="lane-label" x="230" y="489" text-anchor="end">worker main</text>
<line x1="240" y1="512" x2="1882" y2="512" stroke="#f1f5f9"/>
<rect x="579.6" y="458" width="4.2" height="50" rx="3" fill="#6a3d9a" stroke="#0f172a" stroke-opacity="0.22" stroke-width="1">
<title>Qwen3 0.6B wake / remap: 0.038s (3.102s -&gt; 3.140s); raw=main_gms_remap</title>
</rect>
<text class="model-label" x="230" y="552" text-anchor="end">Qwen3 8B</text>
<text class="lane-label" x="230" y="595" text-anchor="end">GMS loader</text>
<line x1="240" y1="618" x2="1882" y2="618" stroke="#f1f5f9"/>
<rect x="240.7" y="564" width="80.0" height="50" rx="3" fill="#ffd92f" stroke="#0f172a" stroke-opacity="0.22" stroke-width="1">
<title>Qwen3 8B GMS load setup: 0.731s (0.006s -&gt; 0.737s); raw=gms_load_wait_for_rw, gms_load_phase_a_allocate_va</title>
</rect>
<rect x="320.7" y="564" width="199.4" height="50" rx="3" fill="#ff7f00" stroke="#0f172a" stroke-opacity="0.22" stroke-width="1">
<title>Qwen3 8B GMS load weights: 1.822s (0.737s -&gt; 2.559s); raw=gms_load_phase_b_stream_to_gpu</title>
</rect>
<rect x="389.4" y="573.0" width="62.0" height="32" rx="5" fill="#FFFFFF" fill-opacity="0.96" stroke="#0F172A" stroke-opacity="0.35"/>
<text x="420.4" y="596.0" class="bar-label" text-anchor="middle">1.8s</text>
<rect x="520.1" y="564" width="3.6" height="50" rx="3" fill="#a65628" stroke="#0f172a" stroke-opacity="0.22" stroke-width="1">
<title>Qwen3 8B GMS commit: 0.033s (2.559s -&gt; 2.592s); raw=gms_load_metadata_commit, gms_load_sentinel</title>
</rect>
<text class="lane-label" x="230" y="659" text-anchor="end">snapshot agent</text>
<line x1="240" y1="682" x2="1882" y2="682" stroke="#f1f5f9"/>
<rect x="240.0" y="628" width="6.2" height="50" rx="3" fill="#111827" stroke="#0f172a" stroke-opacity="0.22" stroke-width="1">
<title>Qwen3 8B agent setup: 0.057s (0.000s -&gt; 0.057s); raw=restore_agent_to_nsrestore</title>
</rect>
<rect x="248.1" y="628" width="339.0" height="50" rx="3" fill="#377eb8" stroke="#0f172a" stroke-opacity="0.22" stroke-width="1">
<title>Qwen3 8B CRIU restore: 3.097s (0.074s -&gt; 3.171s); raw=criu_restore</title>
</rect>
<rect x="386.6" y="637.0" width="62.0" height="32" rx="5" fill="#FFFFFF" fill-opacity="0.96" stroke="#0F172A" stroke-opacity="0.35"/>
<text x="417.6" y="660.0" class="bar-label" text-anchor="middle">3.1s</text>
<rect x="587.1" y="628" width="54.6" height="50" rx="3" fill="#4daf4a" stroke="#0f172a" stroke-opacity="0.22" stroke-width="1">
<title>Qwen3 8B CUDA restore: 0.499s (3.171s -&gt; 3.670s); raw=cuda_restore</title>
</rect>
<text class="lane-label" x="230" y="723" text-anchor="end">worker main</text>
<line x1="240" y1="746" x2="1882" y2="746" stroke="#f1f5f9"/>
<rect x="651.0" y="692" width="4.1" height="50" rx="3" fill="#6a3d9a" stroke="#0f172a" stroke-opacity="0.22" stroke-width="1">
<title>Qwen3 8B wake / remap: 0.037s (3.755s -&gt; 3.792s); raw=main_gms_remap</title>
</rect>
<text class="model-label" x="230" y="786" text-anchor="end">GPT-OSS 120B</text>
<text class="lane-label" x="230" y="829" text-anchor="end">GMS loader</text>
<line x1="240" y1="852" x2="1882" y2="852" stroke="#f1f5f9"/>
<rect x="242.5" y="798" width="113.2" height="50" rx="3" fill="#ffd92f" stroke="#0f172a" stroke-opacity="0.22" stroke-width="1">
<title>GPT-OSS 120B GMS load setup: 1.034s (0.023s -&gt; 1.057s); raw=gms_load_wait_for_rw, gms_load_phase_a_allocate_va</title>
</rect>
<rect x="268.1" y="807.0" width="62.0" height="32" rx="5" fill="#FFFFFF" fill-opacity="0.96" stroke="#0F172A" stroke-opacity="0.35"/>
<text x="299.1" y="830.0" class="bar-label" text-anchor="middle">1.0s</text>
<rect x="355.7" y="798" width="1009.6" height="50" rx="3" fill="#ff7f00" stroke="#0f172a" stroke-opacity="0.22" stroke-width="1">
<title>GPT-OSS 120B GMS load weights: 9.223s (1.057s -&gt; 10.280s); raw=gms_load_phase_b_stream_to_gpu</title>
</rect>
<rect x="829.5" y="807.0" width="62.0" height="32" rx="5" fill="#FFFFFF" fill-opacity="0.96" stroke="#0F172A" stroke-opacity="0.35"/>
<text x="860.5" y="830.0" class="bar-label" text-anchor="middle">9.2s</text>
<rect x="1365.3" y="798" width="5.9" height="50" rx="3" fill="#a65628" stroke="#0f172a" stroke-opacity="0.22" stroke-width="1">
<title>GPT-OSS 120B GMS commit: 0.054s (10.280s -&gt; 10.334s); raw=gms_load_metadata_commit, gms_load_sentinel</title>
</rect>
<text class="lane-label" x="230" y="893" text-anchor="end">snapshot agent</text>
<line x1="240" y1="916" x2="1882" y2="916" stroke="#f1f5f9"/>
<rect x="240.0" y="862" width="6.6" height="50" rx="3" fill="#111827" stroke="#0f172a" stroke-opacity="0.22" stroke-width="1">
<title>GPT-OSS 120B agent setup: 0.060s (0.000s -&gt; 0.060s); raw=restore_agent_to_nsrestore</title>
</rect>
<rect x="248.1" y="862" width="493.8" height="50" rx="3" fill="#377eb8" stroke="#0f172a" stroke-opacity="0.22" stroke-width="1">
<title>GPT-OSS 120B CRIU restore: 4.511s (0.074s -&gt; 4.585s); raw=criu_restore</title>
</rect>
<rect x="464.0" y="871.0" width="62.0" height="32" rx="5" fill="#FFFFFF" fill-opacity="0.96" stroke="#0F172A" stroke-opacity="0.35"/>
<text x="495.0" y="894.0" class="bar-label" text-anchor="middle">4.5s</text>
<rect x="741.9" y="862" width="82.5" height="50" rx="3" fill="#4daf4a" stroke="#0f172a" stroke-opacity="0.22" stroke-width="1">
<title>GPT-OSS 120B CUDA restore: 0.754s (4.585s -&gt; 5.339s); raw=cuda_restore</title>
</rect>
<rect x="824.8" y="862" width="546.5" height="50" rx="3" fill="#e41a1c" stroke="#0f172a" stroke-opacity="0.22" stroke-width="1">
<title>GPT-OSS 120B wait for GMS: 4.992s (5.342s -&gt; 10.334s); raw=agent_wait_after_nsrestore_for_gms</title>
</rect>
<rect x="1067.0" y="871.0" width="62.0" height="32" rx="5" fill="#FFFFFF" fill-opacity="0.96" stroke="#0F172A" stroke-opacity="0.35"/>
<text x="1098.0" y="894.0" class="bar-label" text-anchor="middle">5.0s</text>
<text class="lane-label" x="230" y="957" text-anchor="end">worker main</text>
<line x1="240" y1="980" x2="1882" y2="980" stroke="#f1f5f9"/>
<rect x="1382.1" y="926" width="2.6" height="50" rx="3" fill="#6a3d9a" stroke="#0f172a" stroke-opacity="0.22" stroke-width="1">
<title>GPT-OSS 120B wake / remap: 0.024s (10.433s -&gt; 10.457s); raw=main_gms_remap</title>
</rect>
<rect x="240" y="1041" width="22" height="22" rx="3" fill="#111827" stroke="#0f172a" stroke-opacity="0.20"/>
<text class="legend-label" x="272" y="1059">agent setup</text>
<rect x="432" y="1041" width="22" height="22" rx="3" fill="#377eb8" stroke="#0f172a" stroke-opacity="0.20"/>
<text class="legend-label" x="464" y="1059">CRIU restore</text>
<rect x="636" y="1041" width="22" height="22" rx="3" fill="#4daf4a" stroke="#0f172a" stroke-opacity="0.20"/>
<text class="legend-label" x="668" y="1059">CUDA restore</text>
<rect x="840" y="1041" width="22" height="22" rx="3" fill="#e41a1c" stroke="#0f172a" stroke-opacity="0.20"/>
<text class="legend-label" x="872" y="1059">wait for GMS</text>
<rect x="1044" y="1041" width="22" height="22" rx="3" fill="#ffd92f" stroke="#0f172a" stroke-opacity="0.20"/>
<text class="legend-label" x="1076" y="1059">GMS load setup</text>
<rect x="1272" y="1041" width="22" height="22" rx="3" fill="#ff7f00" stroke="#0f172a" stroke-opacity="0.20"/>
<text class="legend-label" x="1304" y="1059">GMS load weights</text>
<rect x="1524" y="1041" width="22" height="22" rx="3" fill="#a65628" stroke="#0f172a" stroke-opacity="0.20"/>
<text class="legend-label" x="1556" y="1059">GMS commit</text>
<rect x="240" y="1075" width="22" height="22" rx="3" fill="#6a3d9a" stroke="#0f172a" stroke-opacity="0.20"/>
<text class="legend-label" x="272" y="1093">wake / remap</text>
</svg>
