<svg xmlns="http://www.w3.org/2000/svg" width="1280" height="720" viewBox="0 0 1280 720">
<rect width="1280" height="720" fill="#000000"/>
<style>
  .title { font-family: "Helvetica Neue", Helvetica, Geist, Arial, sans-serif; font-size: 36px; font-weight: 300; fill: #ffffff; }
  .subtitle { font-family: "Helvetica Neue", Helvetica, Geist, Arial, sans-serif; font-size: 17px; font-weight: 300; fill: #cdcdcd; }
  .model { font-family: Geist, "Helvetica Neue", Helvetica, Arial, sans-serif; font-size: 16px; font-weight: 500; fill: #ffffff; }
  .lane-label { font-family: Geist, "Helvetica Neue", Helvetica, Arial, sans-serif; font-size: 11px; font-weight: 400; fill: #cdcdcd; }
  .num { font-family: "Geist Mono", "SF Mono", Menlo, Consolas, monospace; font-size: 11px; font-weight: 500; fill: #ffffff; }
  .num-on-green { font-family: "Geist Mono", "SF Mono", Menlo, Consolas, monospace; font-size: 11px; font-weight: 600; fill: #000000; }
  .total { font-family: "Geist Mono", "SF Mono", Menlo, Consolas, monospace; font-size: 14px; font-weight: 500; fill: #ffffff; }
  .axis { font-family: "Geist Mono", "SF Mono", Menlo, Consolas, monospace; font-size: 11px; font-weight: 400; fill: #8c8c8c; }
  .legend { font-family: Geist, "Helvetica Neue", Helvetica, Arial, sans-serif; font-size: 12px; font-weight: 400; fill: #cdcdcd; }
</style>
<text class="title" x="40" y="58">Snapshot restore vs cold start (unoptimized)</text>
<text class="subtitle" x="40" y="88">Without our CRIU patches, snapshot restore is slower than a cold start for gpt-oss-120b (135s vs 85s)</text>
<line x1="260.0" y1="160" x2="260.0" y2="650" stroke="#1a1a1a" stroke-width="1"/>
<text class="axis" x="260.0" y="668" text-anchor="middle">0s</text>
<line x1="379.2" y1="160" x2="379.2" y2="650" stroke="#1a1a1a" stroke-width="1"/>
<text class="axis" x="379.2" y="668" text-anchor="middle">20s</text>
<line x1="498.5" y1="160" x2="498.5" y2="650" stroke="#1a1a1a" stroke-width="1"/>
<text class="axis" x="498.5" y="668" text-anchor="middle">40s</text>
<line x1="617.7" y1="160" x2="617.7" y2="650" stroke="#1a1a1a" stroke-width="1"/>
<text class="axis" x="617.7" y="668" text-anchor="middle">60s</text>
<line x1="737.0" y1="160" x2="737.0" y2="650" stroke="#1a1a1a" stroke-width="1"/>
<text class="axis" x="737.0" y="668" text-anchor="middle">80s</text>
<line x1="856.2" y1="160" x2="856.2" y2="650" stroke="#1a1a1a" stroke-width="1"/>
<text class="axis" x="856.2" y="668" text-anchor="middle">100s</text>
<line x1="975.4" y1="160" x2="975.4" y2="650" stroke="#1a1a1a" stroke-width="1"/>
<text class="axis" x="975.4" y="668" text-anchor="middle">120s</text>
<line x1="1094.7" y1="160" x2="1094.7" y2="650" stroke="#1a1a1a" stroke-width="1"/>
<text class="axis" x="1094.7" y="668" text-anchor="middle">140s</text>
<text class="model" x="40" y="182">Qwen3 0.6B</text>
<text class="lane-label" x="245" y="224.0" text-anchor="end">cold start</text>
<text class="lane-label" x="245" y="272.0" text-anchor="end">snapshot restore</text>
<rect x="260.0" y="206" width="314.1" height="28" fill="#4a4a4a"/>
<text class="num" x="417.1" y="224.0" text-anchor="middle">52.7s</text>
<text class="total" x="586.1" y="225.0">52.7s</text>
<rect x="260.0" y="254" width="2.0" height="28" fill="#5a5a5a"/>
<rect x="260.4" y="254" width="40.5" height="28" fill="#7a7a7a"/>
<text class="num" x="280.7" y="272.0" text-anchor="middle">6.8s</text>
<rect x="300.9" y="254" width="12.0" height="28" fill="#9a9a9a"/>
<text class="total" x="318.8" y="273.0">7.9s</text>
<text class="model" x="40" y="352">Qwen3 8B</text>
<text class="lane-label" x="245" y="394.0" text-anchor="end">cold start</text>
<text class="lane-label" x="245" y="442.0" text-anchor="end">snapshot restore</text>
<rect x="260.0" y="376" width="349.8" height="28" fill="#4a4a4a"/>
<text class="num" x="434.9" y="394.0" text-anchor="middle">58.7s</text>
<text class="total" x="621.8" y="395.0">58.7s</text>
<rect x="260.0" y="424" width="2.0" height="28" fill="#5a5a5a"/>
<rect x="260.4" y="424" width="145.4" height="28" fill="#7a7a7a"/>
<text class="num" x="333.1" y="442.0" text-anchor="middle">24.4s</text>
<rect x="405.8" y="424" width="18.1" height="28" fill="#9a9a9a"/>
<text class="total" x="435.9" y="443.0">27.5s</text>
<text class="model" x="40" y="522">gpt-oss-120b</text>
<text class="lane-label" x="245" y="564.0" text-anchor="end">cold start</text>
<text class="lane-label" x="245" y="612.0" text-anchor="end">snapshot restore</text>
<rect x="260.0" y="546" width="509.6" height="28" fill="#4a4a4a"/>
<text class="num" x="514.8" y="564.0" text-anchor="middle">85.5s</text>
<text class="total" x="781.6" y="565.0">85.5s</text>
<rect x="260.0" y="594" width="2.0" height="28" fill="#5a5a5a"/>
<rect x="260.5" y="594" width="711.4" height="28" fill="#7a7a7a"/>
<text class="num" x="616.2" y="612.0" text-anchor="middle">119.3s</text>
<rect x="971.9" y="594" width="84.4" height="28" fill="#9a9a9a"/>
<text class="num" x="1014.1" y="612.0" text-anchor="middle">14.2s</text>
<text class="total" x="1068.3" y="613.0">133.6s</text>
<rect x="419.5" y="680" width="12" height="12" fill="#4a4a4a"/>
<text class="legend" x="437.5" y="690">cold start</text>
<rect x="525.5" y="680" width="12" height="12" fill="#5a5a5a"/>
<text class="legend" x="543.5" y="690">agent setup</text>
<rect x="638.5" y="680" width="12" height="12" fill="#7a7a7a"/>
<text class="legend" x="656.5" y="690">CRIU restore</text>
<rect x="758.5" y="680" width="12" height="12" fill="#9a9a9a"/>
<text class="legend" x="776.5" y="690">CUDA restore</text>
</svg>