<svg xmlns="http://www.w3.org/2000/svg" width="1900" height="834" viewBox="0 0 1900 834" style="background:#f8fafc;color-scheme:light">
<style>
  text { font-family: Inter, Arial, Helvetica, sans-serif; letter-spacing: 0; fill: #0F172A; }
  .title { font-size: 50px; font-weight: 800; }
  .subtitle { font-size: 26px; fill: #475569; }
  .axis, .axis-label { font-size: 21px; font-weight: 700; fill: #334155; }
  .model, .model-label { font-size: 24px; font-weight: 800; fill: #0F172A; }
  .lane-label { font-size: 20px; font-weight: 700; fill: #475569; }
  .legend, .legend-label { font-size: 22px; font-weight: 700; fill: #1E293B; }
  .bar-label { font-size: 19px; font-weight: 800; fill: #0F172A; }
</style>
<rect width="100%" height="100%" fill="#f8fafc"/>
<rect x="228" y="168" width="1594" height="502" rx="6" fill="#ffffff" stroke="#e2e8f0"/>
<text class="title" x="240" y="64">Dynamo vLLM Snapshot Restore (Optimized)</text>
<text class="subtitle" x="240" y="110">Single-GPU (1xB200), with AIO and parallel memfd optimizations</text>
<line x1="240.0" y1="190" x2="240.0" y2="682" stroke="#e5e7eb"/>
<line x1="240.0" y1="184" x2="240.0" y2="190" stroke="#64748b"/>
<text class="axis-label" x="240.0" y="180" text-anchor="middle">0.0s</text>
<text class="axis-label" x="240.0" y="708" text-anchor="middle">0.0s</text>
<line x1="414.4" y1="190" x2="414.4" y2="682" stroke="#e5e7eb"/>
<line x1="414.4" y1="184" x2="414.4" y2="190" stroke="#64748b"/>
<text class="axis-label" x="414.4" y="180" text-anchor="middle">10s</text>
<text class="axis-label" x="414.4" y="708" text-anchor="middle">10s</text>
<line x1="588.9" y1="190" x2="588.9" y2="682" stroke="#e5e7eb"/>
<line x1="588.9" y1="184" x2="588.9" y2="190" stroke="#64748b"/>
<text class="axis-label" x="588.9" y="180" text-anchor="middle">20s</text>
<text class="axis-label" x="588.9" y="708" text-anchor="middle">20s</text>
<line x1="763.3" y1="190" x2="763.3" y2="682" stroke="#e5e7eb"/>
<line x1="763.3" y1="184" x2="763.3" y2="190" stroke="#64748b"/>
<text class="axis-label" x="763.3" y="180" text-anchor="middle">30s</text>
<text class="axis-label" x="763.3" y="708" text-anchor="middle">30s</text>
<line x1="937.8" y1="190" x2="937.8" y2="682" stroke="#e5e7eb"/>
<line x1="937.8" y1="184" x2="937.8" y2="190" stroke="#64748b"/>
<text class="axis-label" x="937.8" y="180" text-anchor="middle">40s</text>
<text class="axis-label" x="937.8" y="708" text-anchor="middle">40s</text>
<line x1="1112.2" y1="190" x2="1112.2" y2="682" stroke="#e5e7eb"/>
<line x1="1112.2" y1="184" x2="1112.2" y2="190" stroke="#64748b"/>
<text class="axis-label" x="1112.2" y="180" text-anchor="middle">50s</text>
<text class="axis-label" x="1112.2" y="708" text-anchor="middle">50s</text>
<line x1="1286.7" y1="190" x2="1286.7" y2="682" stroke="#e5e7eb"/>
<line x1="1286.7" y1="184" x2="1286.7" y2="190" stroke="#64748b"/>
<text class="axis-label" x="1286.7" y="180" text-anchor="middle">1m</text>
<text class="axis-label" x="1286.7" y="708" text-anchor="middle">1m</text>
<line x1="1461.1" y1="190" x2="1461.1" y2="682" stroke="#e5e7eb"/>
<line x1="1461.1" y1="184" x2="1461.1" y2="190" stroke="#64748b"/>
<text class="axis-label" x="1461.1" y="180" text-anchor="middle">1m10s</text>
<text class="axis-label" x="1461.1" y="708" text-anchor="middle">1m10s</text>
<line x1="1635.6" y1="190" x2="1635.6" y2="682" stroke="#e5e7eb"/>
<line x1="1635.6" y1="184" x2="1635.6" y2="190" stroke="#64748b"/>
<text class="axis-label" x="1635.6" y="180" text-anchor="middle">1m20s</text>
<text class="axis-label" x="1635.6" y="708" text-anchor="middle">1m20s</text>
<line x1="1810.0" y1="190" x2="1810.0" y2="682" stroke="#e5e7eb"/>
<line x1="1810.0" y1="184" x2="1810.0" y2="190" stroke="#64748b"/>
<text class="axis-label" x="1810.0" y="180" text-anchor="middle">1m30s</text>
<text class="axis-label" x="1810.0" y="708" text-anchor="middle">1m30s</text>
<line x1="240" y1="190" x2="1810" y2="190" stroke="#64748b" stroke-width="1"/>
<line x1="240" y1="168" x2="240" y2="682" stroke="#0f172a" stroke-width="1.2"/>
<text class="model-label" x="230" y="206" text-anchor="end">Qwen3 0.6B</text>
<text class="lane-label" x="230" y="249" text-anchor="end">Cold Start</text>
<line x1="240" y1="272" x2="1810" y2="272" stroke="#f1f5f9"/>
<rect x="240.0" y="218" width="919.1" height="50" rx="3" fill="#9C755F" stroke="#0f172a" stroke-opacity="0.22" stroke-width="1">
<title>Qwen3 0.6B Cold Start: 52.686s (0.000s -&gt; 52.686s); raw=cold start total, excluding base container startup</title>
</rect>
<rect x="674.0" y="227.0" width="51.0" height="32" rx="5" fill="#FFFFFF" fill-opacity="0.96" stroke="#0F172A" stroke-opacity="0.35"/>
<text x="699.5" y="250.0" class="bar-label" text-anchor="middle">53s</text>
<text class="lane-label" x="230" y="313" text-anchor="end">Snapshot Restore</text>
<line x1="240" y1="336" x2="1810" y2="336" stroke="#f1f5f9"/>
<rect x="240.0" y="282" width="1.3" height="50" rx="3" fill="#111827" stroke="#0f172a" stroke-opacity="0.22" stroke-width="1">
<title>Qwen3 0.6B agent setup: 0.075s (0.000s -&gt; 0.075s); raw=agent_detect_to_restore_start, host_inspect, agent_nsrestore_launch, nsrestore_setup</title>
</rect>
<rect x="241.3" y="282" width="41.2" height="50" rx="3" fill="#377eb8" stroke="#0f172a" stroke-opacity="0.22" stroke-width="1">
<title>Qwen3 0.6B CRIU restore: 2.359s (0.075s -&gt; 2.434s); raw=criu_restore</title>
</rect>
<rect x="282.5" y="282" width="15.6" height="50" rx="3" fill="#4daf4a" stroke="#0f172a" stroke-opacity="0.22" stroke-width="1">
<title>Qwen3 0.6B CUDA restore: 0.894s (2.434s -&gt; 3.328s); raw=cuda_restore</title>
</rect>
<rect x="298.2" y="282" width="2.9" height="50" rx="3" fill="#6a3d9a" stroke="#0f172a" stroke-opacity="0.22" stroke-width="1">
<title>Qwen3 0.6B wake / remap: 0.165s (3.334s -&gt; 3.499s); raw=worker_wake_up</title>
</rect>
<text class="model-label" x="230" y="376" text-anchor="end">Qwen3 8B</text>
<text class="lane-label" x="230" y="419" text-anchor="end">Cold Start</text>
<line x1="240" y1="442" x2="1810" y2="442" stroke="#f1f5f9"/>
<rect x="240.0" y="388" width="1023.4" height="50" rx="3" fill="#9C755F" stroke="#0f172a" stroke-opacity="0.22" stroke-width="1">
<title>Qwen3 8B Cold Start: 58.664s (0.000s -&gt; 58.664s); raw=cold start total, excluding base container startup</title>
</rect>
<rect x="726.2" y="397.0" width="51.0" height="32" rx="5" fill="#FFFFFF" fill-opacity="0.96" stroke="#0F172A" stroke-opacity="0.35"/>
<text x="751.7" y="420.0" class="bar-label" text-anchor="middle">59s</text>
<text class="lane-label" x="230" y="483" text-anchor="end">Snapshot Restore</text>
<line x1="240" y1="506" x2="1810" y2="506" stroke="#f1f5f9"/>
<rect x="240.0" y="452" width="1.4" height="50" rx="3" fill="#111827" stroke="#0f172a" stroke-opacity="0.22" stroke-width="1">
<title>Qwen3 8B agent setup: 0.080s (0.000s -&gt; 0.080s); raw=agent_detect_to_restore_start, host_inspect, agent_nsrestore_launch, nsrestore_setup</title>
</rect>
<rect x="241.4" y="452" width="82.6" height="50" rx="3" fill="#377eb8" stroke="#0f172a" stroke-opacity="0.22" stroke-width="1">
<title>Qwen3 8B CRIU restore: 4.733s (0.080s -&gt; 4.813s); raw=criu_restore</title>
</rect>
<rect x="251.7" y="461.0" width="62.0" height="32" rx="5" fill="#FFFFFF" fill-opacity="0.96" stroke="#0F172A" stroke-opacity="0.35"/>
<text x="282.7" y="484.0" class="bar-label" text-anchor="middle">4.7s</text>
<rect x="324.0" y="452" width="48.8" height="50" rx="3" fill="#4daf4a" stroke="#0f172a" stroke-opacity="0.22" stroke-width="1">
<title>Qwen3 8B CUDA restore: 2.795s (4.813s -&gt; 7.608s); raw=cuda_restore</title>
</rect>
<rect x="372.8" y="452" width="7.9" height="50" rx="3" fill="#6a3d9a" stroke="#0f172a" stroke-opacity="0.22" stroke-width="1">
<title>Qwen3 8B wake / remap: 0.450s (7.613s -&gt; 8.063s); raw=worker_wake_up</title>
</rect>
<text class="model-label" x="230" y="546" text-anchor="end">gpt-oss-120b</text>
<text class="lane-label" x="230" y="589" text-anchor="end">Cold Start</text>
<line x1="240" y1="612" x2="1810" y2="612" stroke="#f1f5f9"/>
<rect x="240.0" y="558" width="1491.0" height="50" rx="3" fill="#9C755F" stroke="#0f172a" stroke-opacity="0.22" stroke-width="1">
<title>gpt-oss-120b Cold Start: 85.473s (0.000s -&gt; 85.473s); raw=cold start total, excluding base container startup</title>
</rect>
<rect x="960.0" y="567.0" width="51.0" height="32" rx="5" fill="#FFFFFF" fill-opacity="0.96" stroke="#0F172A" stroke-opacity="0.35"/>
<text x="985.5" y="590.0" class="bar-label" text-anchor="middle">85s</text>
<text class="lane-label" x="230" y="653" text-anchor="end">Snapshot Restore</text>
<line x1="240" y1="676" x2="1810" y2="676" stroke="#f1f5f9"/>
<rect x="240.0" y="622" width="1.3" height="50" rx="3" fill="#111827" stroke="#0f172a" stroke-opacity="0.22" stroke-width="1">
<title>gpt-oss-120b agent setup: 0.072s (0.000s -&gt; 0.072s); raw=agent_detect_to_restore_start, host_inspect, agent_nsrestore_launch, nsrestore_setup</title>
</rect>
<rect x="241.3" y="622" width="269.8" height="50" rx="3" fill="#377eb8" stroke="#0f172a" stroke-opacity="0.22" stroke-width="1">
<title>gpt-oss-120b CRIU restore: 15.465s (0.072s -&gt; 15.537s); raw=criu_restore</title>
</rect>
<rect x="350.6" y="631.0" width="51.0" height="32" rx="5" fill="#FFFFFF" fill-opacity="0.96" stroke="#0F172A" stroke-opacity="0.35"/>
<text x="376.1" y="654.0" class="bar-label" text-anchor="middle">15s</text>
<rect x="511.0" y="622" width="245.2" height="50" rx="3" fill="#4daf4a" stroke="#0f172a" stroke-opacity="0.22" stroke-width="1">
<title>gpt-oss-120b CUDA restore: 14.054s (15.537s -&gt; 29.591s); raw=cuda_restore</title>
</rect>
<rect x="608.1" y="631.0" width="51.0" height="32" rx="5" fill="#FFFFFF" fill-opacity="0.96" stroke="#0F172A" stroke-opacity="0.35"/>
<text x="633.6" y="654.0" class="bar-label" text-anchor="middle">14s</text>
<rect x="756.4" y="622" width="26.7" height="50" rx="3" fill="#6a3d9a" stroke="#0f172a" stroke-opacity="0.22" stroke-width="1">
<title>gpt-oss-120b wake / remap: 1.530s (29.603s -&gt; 31.133s); raw=worker_wake_up</title>
</rect>
<rect x="240" y="733" width="22" height="22" rx="3" fill="#9C755F" stroke="#0f172a" stroke-opacity="0.20"/>
<text class="legend-label" x="272" y="751">Cold Start</text>
<rect x="554" y="733" width="22" height="22" rx="3" fill="#111827" stroke="#0f172a" stroke-opacity="0.20"/>
<text class="legend-label" x="586" y="751">agent setup</text>
<rect x="868" y="733" width="22" height="22" rx="3" fill="#377eb8" stroke="#0f172a" stroke-opacity="0.20"/>
<text class="legend-label" x="900" y="751">CRIU restore</text>
<rect x="1182" y="733" width="22" height="22" rx="3" fill="#4daf4a" stroke="#0f172a" stroke-opacity="0.20"/>
<text class="legend-label" x="1214" y="751">CUDA restore</text>
<rect x="1496" y="733" width="22" height="22" rx="3" fill="#6a3d9a" stroke="#0f172a" stroke-opacity="0.20"/>
<text class="legend-label" x="1528" y="751">wake / remap</text>
</svg>
